<?xml version="1.0" encoding="UTF-8" ?>
<!DOCTYPE svg PUBLIC "-//W3C//DTD SVG 1.1//EN" "http://www.w3.org/Graphics/SVG/1.1/DTD/svg11.dtd">
<svg width="756pt" height="756pt" viewBox="0 0 756 756" version="1.1" xmlns="http://www.w3.org/2000/svg">
<path fill="#008e40" stroke="#008e40" stroke-width="0.09375" opacity="1.00" d=" M 356.59 0.00 L 398.54 0.00 C 450.63 3.10 502.20 16.52 548.72 40.27 C 618.34 75.64 676.62 133.00 712.83 202.22 C 731.89 238.43 744.91 277.79 751.32 318.19 C 753.94 334.22 755.19 350.44 756.00 366.66 L 756.00 390.42 C 754.24 433.86 745.65 477.11 729.53 517.53 C 701.59 588.28 651.66 650.13 588.39 692.36 C 530.45 731.49 461.35 753.88 391.44 756.00 L 362.62 756.00 C 316.77 754.21 271.24 744.09 229.11 725.86 C 160.90 696.71 101.82 646.80 61.40 584.64 C 34.33 543.34 15.53 496.65 6.51 448.10 C 2.91 429.06 1.00 409.75 0.00 390.42 L 0.00 372.30 C 1.08 314.32 15.14 256.48 41.88 204.95 C 87.24 116.29 168.93 46.90 264.02 17.11 C 294.00 7.52 325.22 2.16 356.59 0.00 M 334.38 147.48 C 320.92 147.74 307.44 147.38 294.00 148.34 C 272.19 148.66 250.02 150.81 229.45 158.51 C 207.74 166.13 188.64 180.59 174.96 199.04 C 160.69 218.04 153.45 241.45 150.69 264.84 C 148.33 286.13 148.58 307.59 148.10 328.98 C 147.75 356.64 147.78 384.32 147.80 411.99 C 148.77 430.66 147.86 449.39 149.21 468.04 C 149.85 487.33 152.34 506.81 159.22 524.96 C 170.34 556.38 195.89 582.29 227.02 594.11 C 242.61 600.22 259.23 603.28 275.90 604.38 C 290.58 605.29 305.30 605.86 320.01 605.75 C 351.68 605.75 383.35 605.75 415.01 605.75 C 438.35 605.85 461.73 605.87 485.00 603.87 C 505.13 601.97 525.22 596.92 542.98 587.04 C 556.18 579.84 567.65 569.72 577.16 558.13 C 588.98 543.68 596.62 526.18 600.88 508.10 C 605.75 488.10 605.95 467.39 606.57 446.94 C 606.82 413.95 606.60 380.97 606.68 347.98 C 606.55 326.96 607.05 305.93 605.80 284.93 C 605.10 264.98 602.34 244.85 594.92 226.20 C 582.98 194.71 556.50 169.23 524.71 158.20 C 504.66 150.91 483.19 148.72 462.00 148.33 C 445.69 147.37 429.35 147.54 413.02 147.49 C 386.80 147.40 360.59 147.32 334.38 147.48 Z" />
<path fill="#008e40" stroke="#008e40" stroke-width="0.09375" opacity="1.00" d=" M 333.35 188.51 C 370.91 188.33 408.46 188.46 446.01 188.66 C 465.76 189.63 485.91 189.18 505.05 194.90 C 520.00 198.96 533.76 207.39 543.71 219.31 C 557.23 234.79 562.41 255.61 564.14 275.63 C 566.06 305.39 565.81 335.24 565.88 365.05 C 565.72 402.05 566.48 439.11 564.27 476.07 C 562.68 497.01 557.43 518.94 543.02 534.93 C 533.39 546.13 520.38 554.16 506.22 558.24 C 491.25 562.96 475.45 563.60 459.89 564.29 C 419.92 565.44 379.93 565.21 339.95 565.19 C 326.97 565.34 314.00 564.55 301.01 564.47 C 279.42 563.90 257.04 562.94 237.06 553.86 C 227.58 549.68 219.35 543.11 212.45 535.45 C 201.98 524.46 196.29 509.82 193.28 495.16 C 190.24 480.98 190.39 466.42 189.59 452.02 C 188.98 417.03 188.61 382.03 188.93 347.03 C 189.29 323.04 189.24 299.03 190.86 275.09 C 192.02 263.88 193.76 252.60 197.92 242.07 C 204.95 222.64 220.44 206.39 239.58 198.56 C 252.34 193.03 266.26 191.02 280.02 189.89 C 297.78 188.93 315.56 188.50 333.35 188.51 M 494.48 227.58 C 481.36 229.71 471.36 242.82 472.41 256.01 C 472.83 270.11 485.87 282.44 500.03 281.76 C 515.89 282.46 529.58 266.46 527.07 250.94 C 526.06 242.51 520.75 234.89 513.47 230.63 C 507.81 227.15 500.90 226.69 494.48 227.58 M 363.55 259.82 C 337.54 262.72 312.77 274.90 294.32 293.41 C 278.98 308.57 267.94 328.04 262.91 349.01 C 257.27 372.42 258.91 397.57 267.87 419.94 C 276.31 441.76 291.74 460.67 310.97 473.91 C 340.07 494.02 378.48 499.86 412.23 489.20 C 444.71 479.41 472.06 454.68 485.51 423.59 C 495.31 401.57 497.64 376.47 492.81 352.90 C 486.29 320.05 464.70 290.76 435.59 274.32 C 413.95 261.88 388.30 256.92 363.55 259.82 Z" />
<path fill="#008e40" stroke="#008e40" stroke-width="0.09375" opacity="1.00" d=" M 366.60 300.78 C 379.18 298.89 392.20 300.38 404.11 304.82 C 421.40 311.11 436.10 324.04 444.87 340.19 C 453.08 355.26 456.01 373.14 452.98 390.04 C 450.34 405.14 442.99 419.33 432.27 430.28 C 420.95 441.90 405.87 449.78 389.85 452.36 C 373.72 455.03 356.75 452.36 342.24 444.80 C 325.22 436.09 311.74 420.74 305.28 402.75 C 300.18 388.44 299.11 372.58 303.10 357.86 C 310.16 328.36 336.52 304.66 366.60 300.78 Z" />
</svg>
