<?xml version="1.0" encoding="UTF-8" ?>
<!DOCTYPE svg PUBLIC "-//W3C//DTD SVG 1.1//EN" "http://www.w3.org/Graphics/SVG/1.1/DTD/svg11.dtd">
<svg width="1074pt" height="1074pt" viewBox="0 0 1074 1074" version="1.1" xmlns="http://www.w3.org/2000/svg">
<path fill="#012070" stroke="#012070" stroke-width="0.09375" opacity="1.00" d=" M 211.86 0.00 L 860.70 0.00 C 901.33 3.68 940.92 18.18 974.20 41.80 C 999.44 59.58 1021.10 82.42 1037.54 108.55 C 1056.13 137.98 1067.97 171.64 1071.88 206.23 C 1072.81 212.80 1072.62 219.44 1072.63 226.06 C 1072.61 437.05 1072.68 648.03 1072.60 859.02 C 1068.79 919.84 1039.02 978.26 993.02 1018.06 C 963.80 1043.61 928.10 1061.70 890.18 1070.04 C 883.90 1071.62 877.39 1072.10 871.20 1074.00 L 202.35 1074.00 C 195.43 1071.95 188.18 1071.42 181.21 1069.56 C 122.35 1056.21 69.54 1018.78 37.11 967.93 C 13.25 931.10 0.44 887.41 0.00 843.56 L 0.00 231.32 C 0.36 202.30 5.83 173.31 16.68 146.37 C 38.62 90.87 82.75 44.63 137.14 20.06 C 160.68 9.20 186.10 2.70 211.86 0.00 M 346.08 164.68 C 306.01 173.94 267.11 190.85 235.49 217.50 C 225.91 225.25 217.95 234.72 209.93 244.00 C 188.53 269.06 172.79 298.95 164.50 330.85 C 155.38 364.67 154.98 400.15 157.43 434.87 C 158.79 451.68 160.74 468.45 163.43 485.11 C 168.72 509.08 174.75 532.95 182.91 556.12 C 184.00 558.93 185.31 562.86 188.94 562.90 C 234.56 569.84 280.36 575.36 326.09 581.47 C 372.33 587.55 418.57 593.73 464.90 599.07 C 473.96 600.07 483.10 602.38 492.24 600.82 C 493.27 597.61 494.50 594.08 493.24 590.76 C 491.56 586.90 489.48 583.24 487.65 579.46 C 458.50 521.83 431.44 462.07 420.01 398.08 C 415.83 373.69 414.12 348.47 418.86 324.04 C 422.79 304.85 430.71 285.77 444.94 271.93 C 459.46 257.38 478.41 248.24 497.72 241.88 C 524.41 233.04 552.59 229.92 580.57 228.83 C 587.67 228.25 594.81 227.23 601.94 228.09 C 621.21 230.20 640.72 228.11 659.93 231.06 C 683.36 231.19 706.79 234.95 730.21 232.49 C 735.31 231.93 740.71 231.71 745.24 229.03 C 745.52 226.58 743.55 223.83 741.68 222.16 C 733.72 216.24 724.59 212.14 715.41 208.50 C 654.13 185.36 590.28 168.91 525.41 159.77 C 465.96 151.52 404.81 151.22 346.08 164.68 M 536.54 295.72 C 512.29 299.45 489.58 312.04 473.40 330.45 C 464.53 339.75 459.68 352.29 458.36 364.95 C 456.16 385.39 461.28 406.39 472.26 423.74 C 489.86 452.14 518.06 472.29 547.93 486.26 C 567.63 495.52 588.54 502.36 610.05 505.87 C 635.89 508.21 662.01 504.36 686.75 496.82 C 698.06 493.24 708.68 487.43 717.71 479.72 C 730.46 468.95 739.32 453.74 742.72 437.43 C 746.38 419.11 742.79 399.56 733.33 383.51 C 716.20 354.83 689.35 333.16 660.12 317.66 C 643.57 308.54 625.14 303.76 606.97 299.06 C 583.91 293.94 559.98 293.09 536.54 295.72 M 764.26 313.56 C 763.01 323.40 766.67 332.76 770.08 341.78 C 777.42 360.62 787.68 378.34 792.92 397.98 C 795.54 407.43 796.16 417.27 796.89 427.00 C 798.01 447.82 794.69 469.65 783.27 487.46 C 773.81 503.04 762.06 517.28 748.15 529.08 C 732.23 542.71 713.81 553.07 694.91 561.94 C 677.36 569.98 659.63 577.74 641.15 583.38 C 572.99 605.17 500.80 610.54 429.62 609.64 C 402.36 608.85 375.06 608.27 347.90 605.57 C 303.56 600.80 259.61 593.00 215.94 584.00 C 204.64 581.98 193.33 579.30 181.78 579.46 C 182.70 586.20 186.05 592.18 188.99 598.20 C 193.89 609.45 199.43 620.40 204.67 631.49 C 239.48 704.19 274.37 776.86 310.00 849.17 C 320.19 869.76 330.13 890.50 341.52 910.47 C 343.56 914.19 346.22 917.51 349.23 920.49 C 358.94 921.31 368.43 918.63 377.94 917.15 C 406.86 912.57 435.34 905.69 463.79 898.86 C 493.05 891.97 522.30 884.91 551.01 875.96 C 575.05 868.76 598.48 859.77 622.01 851.09 C 649.24 840.63 675.80 828.42 701.51 814.63 C 720.08 804.46 738.58 794.04 755.88 781.78 C 765.42 775.00 774.96 768.21 784.44 761.36 C 812.32 739.48 839.04 715.60 860.37 687.14 C 875.79 666.14 889.31 643.64 899.42 619.60 C 909.19 596.25 915.68 571.33 916.78 545.98 C 918.51 512.44 910.61 478.89 896.69 448.49 C 889.92 434.09 882.30 419.96 872.39 407.45 C 849.47 377.17 822.90 349.71 793.94 325.16 C 785.55 318.60 775.73 310.30 764.26 313.56 Z" />
</svg>
