<?xml version="1.0" encoding="UTF-8" ?>
<!DOCTYPE svg PUBLIC "-//W3C//DTD SVG 1.1//EN" "http://www.w3.org/Graphics/SVG/1.1/DTD/svg11.dtd">
<svg width="756pt" height="756pt" viewBox="0 0 756 756" version="1.1" xmlns="http://www.w3.org/2000/svg">
<path fill="#008e40" stroke="#008e40" stroke-width="0.09375" opacity="1.00" d=" M 274.61 15.34 C 356.72 -8.27 446.84 -3.07 525.53 30.29 C 562.71 45.96 597.19 67.92 627.38 94.66 C 682.92 143.74 723.75 209.41 742.43 281.20 C 752.76 320.15 756.46 360.75 754.33 400.97 C 750.03 476.36 722.33 550.24 675.81 609.73 C 630.92 667.94 568.64 712.63 498.97 736.16 C 463.08 748.43 425.30 754.88 387.42 756.00 L 368.56 756.00 C 361.68 755.66 354.79 755.42 347.93 754.86 C 275.03 749.23 204.04 721.57 146.60 676.34 C 87.15 630.10 42.00 565.69 19.07 493.93 C -4.35 421.46 -4.94 341.91 17.09 269.03 C 29.58 227.74 49.21 188.58 74.98 153.98 C 123.92 87.55 195.22 37.92 274.61 15.34 M 403.15 237.11 C 387.71 254.58 379.39 277.82 378.98 301.03 C 378.83 314.41 378.94 327.79 378.89 341.17 C 345.56 340.98 313.16 329.93 284.33 313.73 C 245.59 291.94 212.06 261.74 183.66 227.72 C 174.24 243.85 169.64 262.92 171.60 281.56 C 174.30 301.37 185.19 319.03 198.18 333.81 C 206.88 343.75 216.84 352.60 227.71 360.11 C 221.03 359.57 214.45 358.12 208.08 356.07 C 195.23 352.31 182.86 347.07 170.87 341.14 C 170.58 361.55 177.74 382.21 191.72 397.22 C 205.57 412.43 224.93 421.76 244.91 425.77 C 239.23 427.81 233.69 430.29 227.82 431.78 C 215.90 434.96 203.48 435.46 191.21 435.70 C 193.08 441.07 195.80 446.14 199.33 450.61 C 208.61 462.39 221.61 470.61 235.10 476.81 C 256.55 486.34 279.85 491.64 303.30 492.41 C 280.64 509.36 253.19 518.36 225.82 524.28 C 201.60 529.29 176.73 531.25 152.03 529.78 C 190.98 553.73 236.74 564.29 281.97 567.28 C 327.20 570.16 373.44 564.13 415.28 546.26 C 451.82 530.83 484.69 506.61 509.83 475.90 C 537.23 442.67 555.97 402.38 563.81 360.03 C 568.11 338.25 568.29 315.98 567.67 293.87 C 570.10 291.91 572.62 290.04 575.03 288.05 C 587.96 277.30 596.57 262.61 605.81 248.81 C 587.73 256.73 568.73 262.89 549.11 265.47 C 558.51 259.65 567.58 253.29 576.04 246.15 C 588.01 235.65 600.22 224.12 605.80 208.81 C 583.42 221.02 558.98 229.22 534.14 234.71 C 515.32 214.79 486.67 207.32 459.97 209.04 C 438.30 210.40 417.45 220.79 403.15 237.11 Z" />
</svg>
