<?xml version="1.0" encoding="UTF-8" ?>
<!DOCTYPE svg PUBLIC "-//W3C//DTD SVG 1.1//EN" "http://www.w3.org/Graphics/SVG/1.1/DTD/svg11.dtd">
<svg width="756pt" height="756pt" viewBox="0 0 756 756" version="1.1" xmlns="http://www.w3.org/2000/svg">
<path fill="#008e40" stroke="#008e40" stroke-width="0.09375" opacity="1.00" d=" M 369.45 0.00 L 384.54 0.00 C 420.22 1.01 455.84 6.41 489.97 16.98 C 566.22 40.46 634.35 89.06 681.78 153.17 C 704.37 183.60 722.43 217.40 734.88 253.20 C 747.82 289.59 754.43 328.03 756.00 366.56 L 756.00 389.44 C 754.87 412.63 752.42 435.82 747.31 458.50 C 738.36 499.71 722.36 539.38 700.24 575.28 C 660.30 640.25 600.36 692.81 530.49 723.48 C 446.86 760.54 349.59 765.65 262.55 737.48 C 225.27 725.57 189.90 707.70 158.13 684.85 C 96.06 640.41 47.79 576.86 22.24 504.87 C -4.54 430.36 -6.82 347.36 15.61 271.44 C 27.74 229.68 47.40 190.15 73.09 155.08 C 107.43 108.11 152.73 69.20 204.38 42.40 C 241.10 23.29 281.01 10.38 321.94 4.25 C 337.67 1.88 353.57 0.83 369.45 0.00 M 224.61 230.81 C 197.78 234.97 174.25 254.69 165.21 280.26 C 161.58 290.08 160.32 300.62 160.56 311.05 C 160.64 357.71 160.57 404.36 160.60 451.02 C 160.63 456.35 160.42 461.71 161.01 467.02 C 162.94 485.68 171.99 503.55 186.07 515.98 C 199.48 528.23 217.47 535.30 235.63 535.54 C 328.74 535.67 421.85 535.55 514.95 535.60 C 521.84 535.63 528.79 535.40 535.52 533.84 C 552.05 530.30 567.27 521.06 578.03 508.03 C 589.24 494.71 595.74 477.44 595.76 460.00 C 595.83 408.31 595.82 356.62 595.75 304.93 C 595.64 281.38 583.52 258.39 564.51 244.60 C 551.18 234.73 534.56 229.55 518.00 229.73 C 425.66 229.70 333.32 229.73 240.97 229.72 C 235.50 229.72 230.01 229.92 224.61 230.81 Z" />
<path fill="#008e40" stroke="#008e40" stroke-width="0.09375" opacity="1.00" d=" M 332.39 321.57 C 370.84 341.46 409.22 361.50 447.68 381.35 C 409.11 402.03 370.48 422.60 331.83 443.13 C 331.98 402.61 332.27 362.09 332.39 321.57 Z" />
</svg>
