<?xml version="1.0" encoding="UTF-8" ?>
<!DOCTYPE svg PUBLIC "-//W3C//DTD SVG 1.1//EN" "http://www.w3.org/Graphics/SVG/1.1/DTD/svg11.dtd">
<svg width="247pt" height="479pt" viewBox="0 0 247 479" version="1.1" xmlns="http://www.w3.org/2000/svg">
<path fill="#c12f23" stroke="#c12f23" stroke-width="0.09375" opacity="1.00" d=" M 121.26 2.33 C 124.04 1.47 126.51 3.66 128.77 4.96 C 127.13 5.38 124.22 4.81 123.73 6.93 C 123.19 19.94 122.23 32.97 122.82 46.01 L 122.86 46.76 C 122.63 65.54 121.13 84.28 119.99 103.00 C 119.39 107.17 119.37 111.45 118.09 115.50 C 117.48 114.47 116.89 113.44 116.32 112.40 C 118.18 111.08 117.15 108.76 117.18 106.90 C 116.90 95.91 118.69 84.99 118.68 74.00 C 120.25 65.69 118.74 57.17 120.51 48.90 C 110.83 47.20 101.10 45.83 91.41 44.13 C 88.57 42.38 85.27 41.81 82.01 41.44 C 84.77 41.20 87.52 40.91 90.29 40.85 C 100.09 42.13 109.84 43.84 119.68 44.75 C 119.76 32.31 120.97 19.86 120.10 7.43 C 118.37 8.07 116.99 9.23 116.05 10.81 C 105.89 18.93 95.74 27.06 85.30 34.83 C 82.10 34.71 79.61 36.71 77.02 38.27 C 78.01 36.87 79.03 35.49 80.16 34.20 C 93.71 23.39 107.91 13.38 121.26 2.33 Z" />
<path fill="#a80904" stroke="#a80904" stroke-width="0.09375" opacity="1.00" d=" M 123.73 6.93 C 124.22 4.81 127.13 5.38 128.77 4.96 C 130.46 6.05 132.16 7.13 133.92 8.12 C 132.45 9.96 135.67 10.85 136.54 12.12 C 139.07 16.41 143.74 18.58 147.54 21.55 C 154.76 27.09 163.12 31.72 168.17 39.56 C 160.74 40.10 153.46 41.96 145.98 41.94 C 141.53 41.85 137.47 44.14 133.03 44.12 C 130.12 44.17 127.21 43.84 124.31 43.56 C 123.81 44.37 123.31 45.19 122.82 46.01 C 122.23 32.97 123.19 19.94 123.73 6.93 Z" />
<path fill="#ef7848" stroke="#ef7848" stroke-width="0.09375" opacity="1.00" d=" M 116.05 10.81 C 116.99 9.23 118.37 8.07 120.10 7.43 C 120.97 19.86 119.76 32.31 119.68 44.75 C 109.84 43.84 100.09 42.13 90.29 40.85 C 87.96 40.44 85.76 39.55 83.57 38.70 C 86.21 38.61 89.51 39.89 91.57 37.61 C 96.84 32.53 101.96 27.28 106.88 21.86 C 109.89 18.57 113.54 15.87 116.16 12.23 C 116.13 11.88 116.08 11.16 116.05 10.81 Z" />
<path fill="#630200" stroke="#630200" stroke-width="0.09375" opacity="1.00" d=" M 136.54 12.12 C 135.67 10.85 132.45 9.96 133.92 8.12 C 146.27 14.95 158.53 21.97 170.55 29.37 C 175.40 32.36 180.64 34.65 185.49 37.63 C 185.06 38.29 184.20 39.60 183.78 40.25 C 182.50 58.46 184.22 76.81 182.50 95.02 C 180.22 83.94 178.49 72.76 176.59 61.60 C 175.22 53.91 175.25 45.93 172.45 38.54 C 166.42 35.11 162.36 29.23 156.49 25.56 C 150.29 20.44 143.55 16.05 136.54 12.12 Z" />
<path fill="#ffbfa0" stroke="#ffbfa0" stroke-width="0.09375" opacity="1.00" d=" M 85.30 34.83 C 95.74 27.06 105.89 18.93 116.05 10.81 C 116.08 11.16 116.13 11.88 116.16 12.23 C 113.54 15.87 109.89 18.57 106.88 21.86 C 101.96 27.28 96.84 32.53 91.57 37.61 C 89.51 39.89 86.21 38.61 83.57 38.70 C 82.44 38.62 81.31 38.58 80.18 38.58 C 82.17 37.75 83.81 36.35 85.30 34.83 Z" />
<path fill="#960505" stroke="#960505" stroke-width="0.09375" opacity="1.00" d=" M 136.54 12.12 C 143.55 16.05 150.29 20.44 156.49 25.56 C 162.36 29.23 166.42 35.11 172.45 38.54 C 175.25 45.93 175.22 53.91 176.59 61.60 C 178.49 72.76 180.22 83.94 182.50 95.02 C 184.22 76.81 182.50 58.46 183.78 40.25 C 183.20 63.58 183.59 86.93 183.43 110.26 C 183.16 110.46 182.62 110.85 182.35 111.05 C 176.01 110.42 169.93 112.26 163.76 113.31 C 155.74 113.54 147.97 115.68 139.99 116.27 C 133.27 116.84 126.91 119.78 120.09 119.38 C 119.67 118.92 118.82 118.00 118.40 117.54 C 123.60 119.20 128.77 117.30 133.70 115.72 C 136.61 114.65 140.28 115.64 142.79 113.69 C 143.67 106.87 142.43 99.95 143.38 93.12 C 144.30 86.78 144.23 80.34 143.90 73.96 C 143.90 70.83 141.46 68.63 139.73 66.31 C 135.87 61.13 130.53 57.03 127.92 50.98 C 133.35 54.28 136.17 61.22 142.70 62.70 C 143.57 61.20 144.43 59.71 145.28 58.20 C 144.15 57.36 142.38 56.86 142.06 55.29 C 142.92 54.18 144.21 53.55 145.35 52.78 C 143.65 50.82 142.07 47.88 139.08 48.00 C 134.17 47.88 128.91 47.15 124.35 49.45 C 123.84 48.56 123.35 47.66 122.86 46.76 L 122.82 46.01 C 123.31 45.19 123.81 44.37 124.31 43.56 C 127.21 43.84 130.12 44.17 133.03 44.12 C 137.47 44.14 141.53 41.85 145.98 41.94 C 153.46 41.96 160.74 40.10 168.17 39.56 C 163.12 31.72 154.76 27.09 147.54 21.55 C 143.74 18.58 139.07 16.41 136.54 12.12 M 147.59 72.58 C 154.67 81.05 162.91 88.55 169.79 97.21 C 174.53 101.14 177.04 107.45 182.89 110.03 C 182.96 107.92 182.89 105.81 182.69 103.71 C 180.02 103.46 178.57 100.95 176.74 99.31 C 170.50 93.21 164.66 86.69 157.93 81.12 C 154.61 77.55 151.58 73.57 147.32 71.03 C 147.39 71.42 147.52 72.19 147.59 72.58 Z" />
<path fill="#da3e2c" stroke="#da3e2c" stroke-width="0.09375" opacity="1.00" d=" M 75.36 37.90 C 76.85 36.53 78.53 35.39 80.16 34.20 C 79.03 35.49 78.01 36.87 77.02 38.27 C 79.61 36.71 82.10 34.71 85.30 34.83 C 83.81 36.35 82.17 37.75 80.18 38.58 C 81.31 38.58 82.44 38.62 83.57 38.70 C 85.76 39.55 87.96 40.44 90.29 40.85 C 87.52 40.91 84.77 41.20 82.01 41.44 C 85.27 41.81 88.57 42.38 91.41 44.13 C 89.54 44.24 87.68 44.39 85.81 44.44 C 83.22 43.81 80.56 43.08 77.91 43.82 C 79.55 47.23 81.37 50.54 82.97 53.97 C 82.52 53.83 81.62 53.54 81.17 53.40 C 84.03 59.39 87.54 65.03 90.29 71.06 C 93.71 77.84 98.36 83.93 101.45 90.89 C 103.32 95.16 106.18 98.93 107.68 103.37 C 106.74 103.46 106.06 103.12 105.64 102.35 C 98.02 88.83 89.42 75.89 81.51 62.54 C 79.36 58.93 77.68 54.86 74.21 52.27 C 74.37 47.51 73.08 42.32 75.36 37.90 Z" />
<path fill="#6a0000" stroke="#6a0000" stroke-width="0.09375" opacity="1.00" d=" M 75.36 37.90 C 73.08 42.32 74.37 47.51 74.21 52.27 C 74.25 54.87 74.32 57.47 74.44 60.07 C 74.76 72.39 74.56 84.72 74.68 97.04 C 74.81 101.82 74.15 106.71 75.57 111.37 L 76.84 111.45 C 77.11 112.64 77.32 113.83 77.56 115.02 C 77.33 114.76 76.85 114.25 76.62 113.99 C 75.81 112.84 74.53 112.30 73.33 111.69 C 73.44 91.79 73.30 71.90 73.65 52.00 C 73.70 47.91 73.83 43.80 73.46 39.72 C 74.08 39.10 74.71 38.49 75.36 37.90 Z" />
<path fill="#441a18" stroke="#441a18" stroke-width="0.09375" opacity="1.00" d=" M 185.49 37.63 L 186.44 38.27 C 186.80 62.83 186.44 87.41 186.37 111.97 C 180.58 115.02 175.27 118.88 169.51 122.00 C 169.51 121.33 169.51 120.00 169.51 119.33 C 174.18 117.20 178.65 114.66 182.35 111.05 C 182.62 110.85 183.16 110.46 183.43 110.26 C 183.59 86.93 183.20 63.58 183.78 40.25 C 184.20 39.60 185.06 38.29 185.49 37.63 Z" />
<path fill="#fac3bf" stroke="#fac3bf" stroke-width="0.09375" opacity="1.00" d=" M 72.37 44.97 C 72.44 43.18 72.12 41.15 73.46 39.72 C 73.83 43.80 73.70 47.91 73.65 52.00 C 73.30 71.90 73.44 91.79 73.33 111.69 C 74.53 112.30 75.81 112.84 76.62 113.99 C 74.38 113.87 71.33 112.97 71.77 110.10 C 71.59 97.42 71.77 84.73 71.78 72.05 C 72.11 63.02 72.50 54.00 72.37 44.97 Z" />
<path fill="#ec6b48" stroke="#ec6b48" stroke-width="0.09375" opacity="1.00" d=" M 77.91 43.82 C 80.56 43.08 83.22 43.81 85.81 44.44 C 93.92 46.59 102.60 46.02 110.45 49.27 C 109.50 58.80 110.01 68.40 109.89 77.96 C 109.74 83.24 110.54 88.63 109.04 93.78 C 107.52 92.94 106.00 92.09 104.49 91.24 C 101.42 86.01 98.06 80.94 95.27 75.55 C 91.39 68.23 86.52 61.46 82.97 53.97 C 81.37 50.54 79.55 47.23 77.91 43.82 Z" />
<path fill="#e85e4e" stroke="#e85e4e" stroke-width="0.09375" opacity="1.00" d=" M 85.81 44.44 C 87.68 44.39 89.54 44.24 91.41 44.13 C 101.10 45.83 110.83 47.20 120.51 48.90 C 118.74 57.17 120.25 65.69 118.68 74.00 C 118.69 84.99 116.90 95.91 117.18 106.90 C 117.15 108.76 118.18 111.08 116.32 112.40 C 112.57 105.24 108.35 98.34 104.49 91.24 C 106.00 92.09 107.52 92.94 109.04 93.78 C 110.54 88.63 109.74 83.24 109.89 77.96 C 110.01 68.40 109.50 58.80 110.45 49.27 C 102.60 46.02 93.92 46.59 85.81 44.44 Z" />
<path fill="#a10704" stroke="#a10704" stroke-width="0.09375" opacity="1.00" d=" M 122.86 46.76 C 123.35 47.66 123.84 48.56 124.35 49.45 C 128.91 47.15 134.17 47.88 139.08 48.00 C 142.07 47.88 143.65 50.82 145.35 52.78 C 144.21 53.55 142.92 54.18 142.06 55.29 C 142.38 56.86 144.15 57.36 145.28 58.20 C 144.43 59.71 143.57 61.20 142.70 62.70 C 136.17 61.22 133.35 54.28 127.92 50.98 C 130.53 57.03 135.87 61.13 139.73 66.31 C 141.46 68.63 143.90 70.83 143.90 73.96 C 144.23 80.34 144.30 86.78 143.38 93.12 C 142.43 99.95 143.67 106.87 142.79 113.69 C 140.28 115.64 136.61 114.65 133.70 115.72 C 128.77 117.30 123.60 119.20 118.40 117.54 L 118.27 117.43 C 116.97 118.49 115.57 119.48 113.86 119.66 C 103.42 119.04 93.34 115.83 83.01 114.49 C 84.13 114.07 85.25 113.67 86.38 113.28 C 89.88 114.11 93.46 114.55 97.03 114.97 C 103.04 115.70 108.92 117.37 114.98 117.68 C 113.89 112.25 109.99 108.19 107.68 103.37 C 106.18 98.93 103.32 95.16 101.45 90.89 C 98.36 83.93 93.71 77.84 90.29 71.06 C 87.54 65.03 84.03 59.39 81.17 53.40 C 81.62 53.54 82.52 53.83 82.97 53.97 C 86.52 61.46 91.39 68.23 95.27 75.55 C 98.06 80.94 101.42 86.01 104.49 91.24 C 108.35 98.34 112.57 105.24 116.32 112.40 C 116.89 113.44 117.48 114.47 118.09 115.50 C 119.37 111.45 119.39 107.17 119.99 103.00 C 121.13 84.28 122.63 65.54 122.86 46.76 M 123.94 65.88 C 123.29 70.44 123.96 75.05 123.38 79.60 C 121.63 89.98 123.56 100.58 121.92 110.97 C 121.51 113.26 122.31 115.55 123.68 117.38 C 125.99 116.44 129.10 116.77 130.82 114.79 C 130.52 101.44 127.65 88.30 127.18 74.94 C 126.47 71.93 126.71 67.77 123.94 65.88 Z" />
<path fill="#ec7249" stroke="#ec7249" stroke-width="0.09375" opacity="1.00" d=" M 74.21 52.27 C 77.68 54.86 79.36 58.93 81.51 62.54 C 89.42 75.89 98.02 88.83 105.64 102.35 C 106.06 103.12 106.74 103.46 107.68 103.37 C 109.99 108.19 113.89 112.25 114.98 117.68 C 108.92 117.37 103.04 115.70 97.03 114.97 C 93.46 114.55 89.88 114.11 86.38 113.28 C 84.78 112.74 83.21 112.13 81.61 111.61 C 83.57 111.51 85.53 111.36 87.49 111.22 C 87.32 105.79 85.30 100.63 84.81 95.22 C 82.69 88.18 82.86 80.64 80.20 73.75 C 78.67 69.50 78.14 64.99 77.39 60.56 C 76.66 60.44 75.18 60.20 74.44 60.07 C 74.32 57.47 74.25 54.87 74.21 52.27 Z" />
<path fill="#ffa27c" stroke="#ffa27c" stroke-width="0.09375" opacity="1.00" d=" M 74.44 60.07 C 75.18 60.20 76.66 60.44 77.39 60.56 C 78.14 64.99 78.67 69.50 80.20 73.75 C 82.86 80.64 82.69 88.18 84.81 95.22 C 85.30 100.63 87.32 105.79 87.49 111.22 C 85.53 111.36 83.57 111.51 81.61 111.61 C 80.02 111.56 78.43 111.52 76.84 111.45 L 75.57 111.37 C 74.15 106.71 74.81 101.82 74.68 97.04 C 74.56 84.72 74.76 72.39 74.44 60.07 M 76.74 80.02 C 76.99 84.46 76.10 89.02 77.46 93.34 C 77.10 98.18 76.68 103.10 77.07 107.95 C 77.04 109.77 78.90 110.19 80.33 110.39 C 81.63 110.08 83.54 110.53 84.18 108.97 C 83.03 99.74 82.72 90.23 79.87 81.26 C 78.98 77.87 79.01 74.27 77.65 70.99 C 76.18 73.76 76.87 77.02 76.74 80.02 Z" />
<path fill="#cc0906" stroke="#cc0906" stroke-width="0.09375" opacity="1.00" d=" M 123.94 65.88 C 126.71 67.77 126.47 71.93 127.18 74.94 C 127.65 88.30 130.52 101.44 130.82 114.79 C 129.10 116.77 125.99 116.44 123.68 117.38 C 122.31 115.55 121.51 113.26 121.92 110.97 C 123.56 100.58 121.63 89.98 123.38 79.60 C 123.96 75.05 123.29 70.44 123.94 65.88 Z" />
<path fill="#f4b499" stroke="#f4b499" stroke-width="0.09375" opacity="1.00" d=" M 76.74 80.02 C 76.87 77.02 76.18 73.76 77.65 70.99 C 79.01 74.27 78.98 77.87 79.87 81.26 C 82.72 90.23 83.03 99.74 84.18 108.97 C 83.54 110.53 81.63 110.08 80.33 110.39 C 81.03 102.26 79.33 94.12 78.46 86.04 C 78.22 88.48 77.86 90.91 77.46 93.34 C 76.10 89.02 76.99 84.46 76.74 80.02 Z" />
<path fill="#6a0000" stroke="#6a0000" stroke-width="0.09375" opacity="1.00" d=" M 147.59 72.58 C 147.52 72.19 147.39 71.42 147.32 71.03 C 151.58 73.57 154.61 77.55 157.93 81.12 C 164.66 86.69 170.50 93.21 176.74 99.31 C 178.57 100.95 180.02 103.46 182.69 103.71 C 182.89 105.81 182.96 107.92 182.89 110.03 C 177.04 107.45 174.53 101.14 169.79 97.21 C 162.91 88.55 154.67 81.05 147.59 72.58 Z" />
<path fill="#f9cbb6" stroke="#f9cbb6" stroke-width="0.09375" opacity="1.00" d=" M 77.46 93.34 C 77.86 90.91 78.22 88.48 78.46 86.04 C 79.33 94.12 81.03 102.26 80.33 110.39 C 78.90 110.19 77.04 109.77 77.07 107.95 C 76.68 103.10 77.10 98.18 77.46 93.34 Z" />
<path fill="#b41935" stroke="#b41935" stroke-width="0.09375" opacity="1.00" d=" M 76.84 111.45 C 78.43 111.52 80.02 111.56 81.61 111.61 C 83.21 112.13 84.78 112.74 86.38 113.28 C 85.25 113.67 84.13 114.07 83.01 114.49 C 93.34 115.83 103.42 119.04 113.86 119.66 C 116.11 119.51 118.86 120.36 119.14 122.98 C 119.49 128.60 121.11 134.03 121.67 139.63 C 118.07 139.51 113.86 140.85 110.82 138.30 C 104.42 133.77 98.57 128.47 91.85 124.40 C 87.33 121.64 83.78 117.59 79.22 114.88 C 79.44 115.40 79.88 116.43 80.10 116.95 C 79.24 116.33 78.36 115.72 77.56 115.02 C 77.32 113.83 77.11 112.64 76.84 111.45 Z" />
<path fill="#620200" stroke="#620200" stroke-width="0.09375" opacity="1.00" d=" M 163.76 113.31 C 169.93 112.26 176.01 110.42 182.35 111.05 C 178.65 114.66 174.18 117.20 169.51 119.33 C 169.51 120.00 169.51 121.33 169.51 122.00 C 168.24 122.82 166.94 123.62 165.65 124.42 C 161.26 121.61 157.92 126.47 154.44 128.41 C 152.09 129.66 150.64 131.87 149.05 133.90 C 146.88 135.48 144.00 135.48 141.70 136.81 C 139.43 138.15 137.32 139.80 134.79 140.63 C 127.19 140.73 119.60 140.11 112.01 140.52 C 100.72 133.62 90.57 125.01 80.10 116.95 C 79.88 116.43 79.44 115.40 79.22 114.88 C 83.78 117.59 87.33 121.64 91.85 124.40 C 98.57 128.47 104.42 133.77 110.82 138.30 C 113.86 140.85 118.07 139.51 121.67 139.63 C 121.11 134.03 119.49 128.60 119.14 122.98 C 118.86 120.36 116.11 119.51 113.86 119.66 C 115.57 119.48 116.97 118.49 118.27 117.43 L 118.40 117.54 C 118.82 118.00 119.67 118.92 120.09 119.38 C 126.91 119.78 133.27 116.84 139.99 116.27 C 147.97 115.68 155.74 113.54 163.76 113.31 Z" />
<path fill="#4a141f" stroke="#4a141f" stroke-width="0.09375" opacity="1.00" d=" M 154.44 128.41 C 157.92 126.47 161.26 121.61 165.65 124.42 C 156.79 129.88 148.23 135.79 139.45 141.37 C 138.94 141.68 137.92 142.30 137.42 142.61 C 136.54 141.95 135.66 141.29 134.79 140.63 C 137.32 139.80 139.43 138.15 141.70 136.81 C 144.00 135.48 146.88 135.48 149.05 133.90 C 150.64 131.87 152.09 129.66 154.44 128.41 Z" />
<path fill="#802c82" stroke="#802c82" stroke-width="0.09375" opacity="1.00" d=" M 112.01 140.52 C 119.60 140.11 127.19 140.73 134.79 140.63 C 135.66 141.29 136.54 141.95 137.42 142.61 C 137.92 142.30 138.94 141.68 139.45 141.37 C 139.41 141.87 139.35 142.88 139.31 143.38 C 144.81 143.64 150.33 145.10 154.93 148.19 C 158.61 150.76 162.55 154.65 161.58 159.58 C 157.34 160.97 155.57 156.34 152.51 154.52 C 148.70 152.07 144.41 150.53 140.11 149.18 C 140.03 152.00 141.70 154.32 142.83 156.76 C 143.91 159.04 143.66 161.64 143.72 164.08 C 143.14 164.45 141.99 165.19 141.42 165.55 C 140.52 164.78 139.65 163.98 138.80 163.16 L 138.50 162.14 C 139.67 162.39 140.83 162.64 142.00 162.88 C 141.47 159.82 140.86 156.66 138.96 154.12 C 136.29 150.56 133.47 145.71 128.31 146.12 C 128.34 146.75 128.40 148.01 128.42 148.64 C 132.00 150.47 135.50 152.68 137.69 156.15 L 136.95 157.44 C 135.47 156.04 133.93 154.69 132.48 153.27 C 132.07 152.88 131.26 152.10 130.85 151.71 C 127.96 151.39 124.78 151.14 122.36 153.08 C 121.92 153.34 121.02 153.86 120.57 154.13 L 120.88 152.53 C 122.08 150.89 123.34 149.30 124.61 147.72 C 123.71 146.85 122.81 145.98 121.91 145.11 C 120.33 146.80 118.83 148.63 118.14 150.88 C 117.21 153.33 116.24 155.75 115.41 158.24 C 115.22 156.64 114.69 155.16 113.84 153.79 C 113.69 153.53 113.39 153.00 113.24 152.74 C 112.41 152.38 111.58 152.02 110.76 151.65 C 107.02 152.69 103.42 154.12 99.85 155.61 C 99.97 155.02 100.21 153.85 100.33 153.27 C 102.94 152.02 105.60 150.86 108.27 149.74 C 111.49 149.47 114.71 148.99 117.78 147.93 C 117.44 147.12 117.52 146.03 116.72 145.50 C 114.25 145.17 111.65 145.51 109.32 144.44 C 110.19 143.12 111.10 141.82 112.01 140.52 Z" />
<path fill="#943797" stroke="#943797" stroke-width="0.09375" opacity="1.00" d=" M 108.18 146.18 C 108.56 145.60 108.94 145.02 109.32 144.44 C 111.65 145.51 114.25 145.17 116.72 145.50 C 117.52 146.03 117.44 147.12 117.78 147.93 C 113.41 144.08 108.09 147.65 103.80 149.63 C 105.29 149.68 106.78 149.72 108.27 149.74 C 105.60 150.86 102.94 152.02 100.33 153.27 C 100.21 153.85 99.97 155.02 99.85 155.61 C 96.55 157.34 94.02 161.59 89.80 160.24 C 89.72 159.02 89.63 157.80 89.54 156.59 C 89.90 156.18 90.61 155.38 90.96 154.97 C 90.97 156.65 90.98 158.34 90.99 160.02 C 91.51 160.02 92.54 160.00 93.06 160.00 C 92.66 158.97 92.26 157.94 91.86 156.92 C 94.02 154.11 96.93 152.06 100.09 150.52 C 99.73 150.13 99.02 149.36 98.66 148.97 C 101.67 147.56 104.93 146.79 108.18 146.18 Z" />
<path fill="#c056ac" stroke="#c056ac" stroke-width="0.09375" opacity="1.00" d=" M 118.14 150.88 C 118.83 148.63 120.33 146.80 121.91 145.11 C 122.81 145.98 123.71 146.85 124.61 147.72 C 123.34 149.30 122.08 150.89 120.88 152.53 C 120.00 153.26 119.12 153.98 118.22 154.70 C 118.18 153.42 118.15 152.15 118.14 150.88 Z" />
<path fill="#ce6cb9" stroke="#ce6cb9" stroke-width="0.09375" opacity="1.00" d=" M 103.80 149.63 C 108.09 147.65 113.41 144.08 117.78 147.93 C 114.71 148.99 111.49 149.47 108.27 149.74 C 106.78 149.72 105.29 149.68 103.80 149.63 Z" />
<path fill="#b953ac" stroke="#b953ac" stroke-width="0.09375" opacity="1.00" d=" M 128.31 146.12 C 133.47 145.71 136.29 150.56 138.96 154.12 C 138.53 154.79 138.11 155.47 137.69 156.15 C 135.50 152.68 132.00 150.47 128.42 148.64 C 128.40 148.01 128.34 146.75 128.31 146.12 Z" />
<path fill="#7e3280" stroke="#7e3280" stroke-width="0.09375" opacity="1.00" d=" M 90.96 154.97 C 93.10 152.50 95.65 150.32 98.66 148.97 C 99.02 149.36 99.73 150.13 100.09 150.52 C 96.93 152.06 94.02 154.11 91.86 156.92 C 92.26 157.94 92.66 158.97 93.06 160.00 C 92.54 160.00 91.51 160.02 90.99 160.02 C 90.98 158.34 90.97 156.65 90.96 154.97 Z" />
<path fill="#91389a" stroke="#91389a" stroke-width="0.09375" opacity="1.00" d=" M 115.41 158.24 C 116.24 155.75 117.21 153.33 118.14 150.88 C 118.15 152.15 118.18 153.42 118.22 154.70 C 119.12 153.98 120.00 153.26 120.88 152.53 L 120.57 154.13 C 118.67 158.97 116.75 163.83 116.04 169.03 C 113.06 166.21 114.82 161.72 115.41 158.24 Z" />
<path fill="#33165d" stroke="#33165d" stroke-width="0.09375" opacity="1.00" d=" M 122.36 153.08 C 124.78 151.14 127.96 151.39 130.85 151.71 C 131.26 152.10 132.07 152.88 132.48 153.27 C 129.10 153.47 125.72 153.46 122.36 153.08 Z" />
<path fill="#29397b" stroke="#29397b" stroke-width="0.09375" opacity="1.00" d=" M 120.57 154.13 C 121.02 153.86 121.92 153.34 122.36 153.08 L 123.31 153.87 C 121.51 157.08 119.76 160.45 119.97 164.26 C 120.21 164.70 120.68 165.57 120.92 166.01 C 119.26 169.26 115.61 170.50 112.30 171.34 C 112.44 170.85 112.71 169.85 112.85 169.36 C 113.90 169.16 114.97 169.05 116.04 169.03 C 116.75 163.83 118.67 158.97 120.57 154.13 Z" />
<path fill="#014d85" stroke="#014d85" stroke-width="0.09375" opacity="1.00" d=" M 122.36 153.08 C 125.72 153.46 129.10 153.47 132.48 153.27 C 133.93 154.69 135.47 156.04 136.95 157.44 C 137.61 158.95 138.06 160.55 138.50 162.14 L 138.80 163.16 C 139.65 163.98 140.52 164.78 141.42 165.55 C 140.86 166.82 140.27 168.06 139.65 169.30 C 139.22 168.51 138.79 167.74 138.36 166.96 C 138.13 170.67 138.60 174.35 139.37 177.97 C 139.27 181.06 137.39 183.81 137.39 186.92 C 138.16 189.97 140.15 192.82 139.61 196.10 C 139.12 198.18 137.63 199.87 137.18 201.96 C 137.46 205.20 139.15 208.44 137.85 211.67 C 136.51 215.22 136.67 218.99 137.48 222.64 C 137.87 222.43 138.65 222.01 139.04 221.80 L 139.41 222.64 L 139.58 223.15 C 137.15 224.50 137.50 227.72 136.86 230.07 C 135.98 233.37 137.18 236.61 137.51 239.88 C 136.46 243.11 134.84 246.11 133.60 249.28 C 138.01 252.37 134.31 257.64 132.56 261.19 C 135.60 262.65 135.15 265.87 134.58 268.65 C 133.93 270.96 135.43 272.96 136.07 275.07 C 136.39 278.70 134.74 282.17 131.85 284.34 C 125.87 284.60 119.94 283.93 114.01 283.35 C 111.73 279.40 112.12 274.81 114.46 271.01 C 112.01 268.18 111.79 264.31 113.07 260.91 C 114.17 258.50 112.35 256.27 111.73 254.02 C 110.47 250.96 112.83 248.08 112.75 245.03 C 112.52 243.00 111.77 241.06 111.61 239.03 C 111.51 235.83 113.17 232.98 113.72 229.91 C 113.49 227.24 112.17 224.73 112.32 222.00 C 111.99 218.28 114.93 214.15 111.60 211.15 C 111.51 209.08 111.40 207.00 111.58 204.93 C 111.75 202.54 113.52 200.56 113.56 198.16 C 113.18 195.72 112.30 193.40 111.61 191.03 C 112.43 187.44 114.48 183.62 112.81 179.96 C 111.71 177.53 111.25 174.88 111.85 172.24 C 113.81 174.74 113.84 179.72 118.00 179.58 C 123.02 178.70 126.87 174.41 129.20 170.06 C 129.97 168.84 130.49 166.81 128.90 165.98 C 126.35 164.92 123.54 165.73 120.92 166.01 C 120.68 165.57 120.21 164.70 119.97 164.26 C 122.62 162.82 125.51 161.80 127.93 159.96 C 129.37 158.90 130.13 156.65 128.99 155.12 C 127.13 154.54 125.19 154.30 123.31 153.87 L 122.36 153.08 M 128.33 181.23 C 125.02 183.34 121.25 184.41 117.52 185.52 C 113.59 186.62 113.16 192.80 116.05 195.16 C 119.99 196.05 124.25 194.97 127.30 192.35 C 129.63 189.66 130.97 186.24 131.97 182.86 C 131.74 181.20 129.74 179.83 128.33 181.23 M 119.97 199.42 C 118.88 199.07 117.78 198.73 116.69 198.39 C 114.91 202.28 112.11 206.00 113.49 210.55 C 114.54 211.60 115.62 212.64 116.43 213.90 C 115.86 217.24 114.11 220.53 114.95 223.99 C 115.39 226.54 117.27 229.16 115.80 231.72 C 114.75 234.57 112.40 239.31 115.90 241.30 C 121.13 241.18 126.36 238.51 129.26 234.14 C 130.24 232.21 131.73 228.65 129.09 227.45 C 125.84 228.93 122.64 230.82 119.00 231.12 C 117.27 230.97 116.77 229.23 116.70 227.78 C 118.66 227.66 120.62 227.55 122.59 227.44 C 126.41 224.65 130.68 221.68 131.45 216.61 C 131.58 214.93 132.45 211.46 129.91 211.38 C 125.91 211.37 122.57 214.21 118.82 215.32 C 118.11 214.66 117.45 213.96 116.85 213.22 C 121.78 212.38 124.97 208.32 128.90 205.66 C 131.43 203.94 132.40 200.58 131.27 197.77 C 127.61 196.16 123.61 198.61 119.97 199.42 M 127.36 243.36 C 124.17 245.25 120.57 246.08 117.03 247.01 C 113.82 247.66 112.18 253.07 115.62 254.48 C 119.60 255.08 123.83 253.59 126.44 250.49 C 128.07 248.56 130.59 246.78 130.53 243.99 C 129.72 242.56 128.66 242.35 127.36 243.36 M 121.52 258.36 C 119.71 259.26 117.04 259.50 116.51 261.84 C 116.22 261.96 115.63 262.19 115.34 262.31 C 115.45 263.29 115.57 264.27 115.69 265.26 C 116.76 265.65 117.83 266.04 118.91 266.45 C 122.88 266.32 125.88 263.19 128.31 260.37 C 129.24 259.35 130.11 257.27 128.73 256.27 C 126.17 256.11 123.88 257.59 121.52 258.36 M 116.44 272.63 C 115.91 274.53 115.27 276.58 116.43 278.40 C 117.40 278.45 119.33 278.56 120.30 278.61 C 123.51 277.56 127.41 276.18 128.56 272.64 C 129.12 271.27 130.16 269.16 128.07 268.50 C 123.98 269.19 120.34 271.34 116.44 272.63 M 121.79 282.27 C 123.85 284.35 127.85 283.94 129.44 281.43 C 130.29 280.64 131.18 277.62 129.06 278.22 C 126.35 278.98 124.10 280.76 121.79 282.27 Z" />
<path fill="#077ab0" stroke="#077ab0" stroke-width="0.09375" opacity="1.00" d=" M 123.31 153.87 C 125.19 154.30 127.13 154.54 128.99 155.12 C 130.13 156.65 129.37 158.90 127.93 159.96 C 125.51 161.80 122.62 162.82 119.97 164.26 C 119.76 160.45 121.51 157.08 123.31 153.87 Z" />
<path fill="#863092" stroke="#863092" stroke-width="0.09375" opacity="1.00" d=" M 138.96 154.12 C 140.86 156.66 141.47 159.82 142.00 162.88 C 140.83 162.64 139.67 162.39 138.50 162.14 C 138.06 160.55 137.61 158.95 136.95 157.44 L 137.69 156.15 C 138.11 155.47 138.53 154.79 138.96 154.12 Z" />
<path fill="#2b236b" stroke="#2b236b" stroke-width="0.09375" opacity="1.00" d=" M 112.85 169.36 C 113.07 164.18 110.90 158.54 113.84 153.79 C 114.69 155.16 115.22 156.64 115.41 158.24 C 114.82 161.72 113.06 166.21 116.04 169.03 C 114.97 169.05 113.90 169.16 112.85 169.36 Z" />
<path fill="#007fae" stroke="#007fae" stroke-width="0.09375" opacity="1.00" d=" M 120.92 166.01 C 123.54 165.73 126.35 164.92 128.90 165.98 C 130.49 166.81 129.97 168.84 129.20 170.06 C 126.87 174.41 123.02 178.70 118.00 179.58 C 113.84 179.72 113.81 174.74 111.85 172.24 C 111.96 172.02 112.19 171.57 112.30 171.34 C 115.61 170.50 119.26 169.26 120.92 166.01 M 117.28 172.31 C 115.75 173.27 114.12 175.77 115.66 177.35 C 117.83 179.79 122.34 176.97 121.23 173.94 C 121.41 171.97 118.53 171.31 117.28 172.31 Z" />
<path fill="#150823" stroke="#150823" stroke-width="0.09375" opacity="1.00" d=" M 138.36 166.96 C 138.79 167.74 139.22 168.51 139.65 169.30 C 139.40 173.96 142.57 179.07 139.61 183.40 C 138.31 184.89 138.14 186.87 139.31 188.48 C 141.23 191.43 140.80 195.02 140.62 198.35 C 140.37 198.67 139.85 199.29 139.60 199.61 C 139.26 199.97 138.60 200.71 138.27 201.08 C 138.38 204.44 140.14 207.68 139.34 211.08 C 138.88 213.99 136.14 216.82 138.16 219.68 C 138.38 220.21 138.82 221.27 139.04 221.80 C 138.65 222.01 137.87 222.43 137.48 222.64 C 136.67 218.99 136.51 215.22 137.85 211.67 C 139.15 208.44 137.46 205.20 137.18 201.96 C 137.63 199.87 139.12 198.18 139.61 196.10 C 140.15 192.82 138.16 189.97 137.39 186.92 C 137.39 183.81 139.27 181.06 139.37 177.97 C 138.60 174.35 138.13 170.67 138.36 166.96 Z" />
<path fill="#06b1d4" stroke="#06b1d4" stroke-width="0.09375" opacity="1.00" d=" M 117.28 172.31 C 118.53 171.31 121.41 171.97 121.23 173.94 C 122.34 176.97 117.83 179.79 115.66 177.35 C 114.12 175.77 115.75 173.27 117.28 172.31 Z" />
<path fill="#007db0" stroke="#007db0" stroke-width="0.09375" opacity="1.00" d=" M 128.33 181.23 C 129.74 179.83 131.74 181.20 131.97 182.86 C 130.97 186.24 129.63 189.66 127.30 192.35 C 124.25 194.97 119.99 196.05 116.05 195.16 C 113.16 192.80 113.59 186.62 117.52 185.52 C 121.25 184.41 125.02 183.34 128.33 181.23 M 116.26 189.30 C 114.47 190.34 115.86 192.33 116.20 193.78 C 118.11 193.89 119.99 193.57 121.72 192.72 C 121.73 191.58 121.71 190.44 121.65 189.30 C 120.41 187.63 117.65 187.95 116.26 189.30 Z" />
<path fill="#a3afc5" stroke="#a3afc5" stroke-width="0.09375" opacity="1.00" d=" M 139.31 188.48 C 138.14 186.87 138.31 184.89 139.61 183.40 C 140.73 188.38 142.12 193.35 141.58 198.52 C 141.34 198.48 140.86 198.39 140.62 198.35 C 140.80 195.02 141.23 191.43 139.31 188.48 Z" />
<path fill="#0daed6" stroke="#0daed6" stroke-width="0.09375" opacity="1.00" d=" M 116.26 189.30 C 117.65 187.95 120.41 187.63 121.65 189.30 C 121.71 190.44 121.73 191.58 121.72 192.72 C 119.99 193.57 118.11 193.89 116.20 193.78 C 115.86 192.33 114.47 190.34 116.26 189.30 Z" />
<path fill="#017cb0" stroke="#017cb0" stroke-width="0.09375" opacity="1.00" d=" M 119.97 199.42 C 123.61 198.61 127.61 196.16 131.27 197.77 C 132.40 200.58 131.43 203.94 128.90 205.66 C 124.97 208.32 121.78 212.38 116.85 213.22 C 117.45 213.96 118.11 214.66 118.82 215.32 C 122.57 214.21 125.91 211.37 129.91 211.38 C 132.45 211.46 131.58 214.93 131.45 216.61 C 130.68 221.68 126.41 224.65 122.59 227.44 C 120.62 227.55 118.66 227.66 116.70 227.78 C 116.77 229.23 117.27 230.97 119.00 231.12 C 122.64 230.82 125.84 228.93 129.09 227.45 C 131.73 228.65 130.24 232.21 129.26 234.14 C 126.36 238.51 121.13 241.18 115.90 241.30 C 112.40 239.31 114.75 234.57 115.80 231.72 C 117.27 229.16 115.39 226.54 114.95 223.99 C 114.11 220.53 115.86 217.24 116.43 213.90 C 115.62 212.64 114.54 211.60 113.49 210.55 C 112.11 206.00 114.91 202.28 116.69 198.39 C 117.78 198.73 118.88 199.07 119.97 199.42 M 117.39 203.47 C 115.20 204.33 112.92 207.75 115.33 209.58 C 118.87 211.05 122.06 206.73 120.31 203.63 C 119.35 203.33 118.38 203.27 117.39 203.47 M 118.17 219.14 C 117.24 220.83 115.59 222.59 116.35 224.68 C 118.01 226.94 122.40 224.82 121.67 222.10 C 121.86 220.04 119.60 219.76 118.17 219.14 M 115.20 237.92 C 115.15 240.68 119.32 239.98 120.22 238.16 C 121.50 236.68 119.64 235.29 118.80 234.19 C 117.20 235.02 114.86 235.61 115.20 237.92 Z" />
<path fill="#a1a6be" stroke="#a1a6be" stroke-width="0.09375" opacity="1.00" d=" M 138.27 201.08 C 138.60 200.71 139.26 199.97 139.60 199.61 C 139.75 202.75 140.24 205.87 140.42 209.01 C 140.63 212.71 138.69 216.08 138.16 219.68 C 136.14 216.82 138.88 213.99 139.34 211.08 C 140.14 207.68 138.38 204.44 138.27 201.08 Z" />
<path fill="#01b3d5" stroke="#01b3d5" stroke-width="0.09375" opacity="1.00" d=" M 117.39 203.47 C 118.38 203.27 119.35 203.33 120.31 203.63 C 122.06 206.73 118.87 211.05 115.33 209.58 C 112.92 207.75 115.20 204.33 117.39 203.47 Z" />
<path fill="#02b2d4" stroke="#02b2d4" stroke-width="0.09375" opacity="1.00" d=" M 118.17 219.14 C 119.60 219.76 121.86 220.04 121.67 222.10 C 122.40 224.82 118.01 226.94 116.35 224.68 C 115.59 222.59 117.24 220.83 118.17 219.14 Z" />
<path fill="#173667" stroke="#173667" stroke-width="0.09375" opacity="1.00" d=" M 136.86 230.07 C 137.50 227.72 137.15 224.50 139.58 223.15 C 140.46 227.17 138.58 230.97 138.56 234.95 C 140.42 237.83 140.05 241.58 138.26 244.39 C 136.06 247.73 139.58 251.42 138.53 255.07 C 135.13 257.74 137.00 261.78 138.48 264.93 C 137.94 266.59 137.41 268.26 136.92 269.94 C 137.37 270.32 138.27 271.07 138.72 271.45 C 138.67 273.93 138.48 276.41 138.20 278.88 C 138.97 280.66 139.76 282.52 138.93 284.47 C 138.64 284.00 138.04 283.05 137.75 282.58 C 136.78 283.10 135.86 283.70 134.96 284.34 C 134.19 284.34 132.63 284.34 131.85 284.34 C 134.74 282.17 136.39 278.70 136.07 275.07 C 135.43 272.96 133.93 270.96 134.58 268.65 C 135.15 265.87 135.60 262.65 132.56 261.19 C 134.31 257.64 138.01 252.37 133.60 249.28 C 134.84 246.11 136.46 243.11 137.51 239.88 C 137.18 236.61 135.98 233.37 136.86 230.07 Z" />
<path fill="#0eadd5" stroke="#0eadd5" stroke-width="0.09375" opacity="1.00" d=" M 115.20 237.92 C 114.86 235.61 117.20 235.02 118.80 234.19 C 119.64 235.29 121.50 236.68 120.22 238.16 C 119.32 239.98 115.15 240.68 115.20 237.92 Z" />
<path fill="#017eb4" stroke="#017eb4" stroke-width="0.09375" opacity="1.00" d=" M 127.36 243.36 C 128.66 242.35 129.72 242.56 130.53 243.99 C 130.59 246.78 128.07 248.56 126.44 250.49 C 123.83 253.59 119.60 255.08 115.62 254.48 C 112.18 253.07 113.82 247.66 117.03 247.01 C 120.57 246.08 124.17 245.25 127.36 243.36 M 114.64 252.04 C 115.66 253.46 117.26 253.05 118.72 252.81 C 118.73 251.60 118.75 250.39 118.76 249.18 C 116.81 248.84 114.56 249.72 114.64 252.04 Z" />
<path fill="#11a2d0" stroke="#11a2d0" stroke-width="0.09375" opacity="1.00" d=" M 114.64 252.04 C 114.56 249.72 116.81 248.84 118.76 249.18 C 118.75 250.39 118.73 251.60 118.72 252.81 C 117.26 253.05 115.66 253.46 114.64 252.04 Z" />
<path fill="#057eb3" stroke="#057eb3" stroke-width="0.09375" opacity="1.00" d=" M 121.52 258.36 C 123.88 257.59 126.17 256.11 128.73 256.27 C 130.11 257.27 129.24 259.35 128.31 260.37 C 125.88 263.19 122.88 266.32 118.91 266.45 C 119.45 265.36 120.01 264.29 120.57 263.21 C 120.33 262.73 119.84 261.76 119.60 261.28 C 118.57 261.45 117.54 261.63 116.51 261.84 C 117.04 259.50 119.71 259.26 121.52 258.36 Z" />
<path fill="#0eabce" stroke="#0eabce" stroke-width="0.09375" opacity="1.00" d=" M 116.51 261.84 C 117.54 261.63 118.57 261.45 119.60 261.28 C 119.84 261.76 120.33 262.73 120.57 263.21 C 120.01 264.29 119.45 265.36 118.91 266.45 C 117.83 266.04 116.76 265.65 115.69 265.26 C 115.57 264.27 115.45 263.29 115.34 262.31 C 115.63 262.19 116.22 261.96 116.51 261.84 Z" />
<path fill="#027daf" stroke="#027daf" stroke-width="0.09375" opacity="1.00" d=" M 116.44 272.63 C 120.34 271.34 123.98 269.19 128.07 268.50 C 130.16 269.16 129.12 271.27 128.56 272.64 C 127.41 276.18 123.51 277.56 120.30 278.61 C 120.50 277.09 120.72 275.58 120.95 274.08 C 119.85 274.22 118.75 274.38 117.65 274.53 C 117.25 275.82 116.84 277.11 116.43 278.40 C 115.27 276.58 115.91 274.53 116.44 272.63 Z" />
<path fill="#83869e" stroke="#83869e" stroke-width="0.09375" opacity="1.00" d=" M 138.72 271.45 C 139.91 272.72 139.80 274.45 139.65 276.07 C 139.27 279.36 140.59 282.63 139.74 285.91 C 139.36 285.99 138.59 286.14 138.21 286.22 C 138.39 285.79 138.75 284.91 138.93 284.47 C 139.76 282.52 138.97 280.66 138.20 278.88 C 138.48 276.41 138.67 273.93 138.72 271.45 Z" />
<path fill="#0b99c9" stroke="#0b99c9" stroke-width="0.09375" opacity="1.00" d=" M 117.65 274.53 C 118.75 274.38 119.85 274.22 120.95 274.08 C 120.72 275.58 120.50 277.09 120.30 278.61 C 119.33 278.56 117.40 278.45 116.43 278.40 C 116.84 277.11 117.25 275.82 117.65 274.53 Z" />
<path fill="#1477ad" stroke="#1477ad" stroke-width="0.09375" opacity="1.00" d=" M 121.79 282.27 C 124.10 280.76 126.35 278.98 129.06 278.22 C 131.18 277.62 130.29 280.64 129.44 281.43 C 127.85 283.94 123.85 284.35 121.79 282.27 Z" />
<path fill="#59547d" stroke="#59547d" stroke-width="0.09375" opacity="1.00" d=" M 134.96 284.34 C 135.86 283.70 136.78 283.10 137.75 282.58 C 138.04 283.05 138.64 284.00 138.93 284.47 C 138.75 284.91 138.39 285.79 138.21 286.22 C 130.38 286.31 122.44 286.85 114.66 285.77 C 114.50 285.16 114.17 283.95 114.01 283.35 C 119.94 283.93 125.87 284.60 131.85 284.34 C 132.63 284.34 134.19 284.34 134.96 284.34 Z" />
<path fill="#d1342c" stroke="#d1342c" stroke-width="0.09375" opacity="1.00" d=" M 103.62 290.43 C 105.81 286.63 110.42 284.84 114.66 285.77 C 122.44 286.85 130.38 286.31 138.21 286.22 C 138.59 286.14 139.36 285.99 139.74 285.91 C 140.95 286.02 142.15 286.19 143.35 286.42 C 139.57 287.18 135.73 287.53 131.91 287.99 C 126.51 288.79 121.05 288.25 115.62 288.47 C 112.13 287.90 107.63 287.85 105.55 291.27 C 105.07 293.66 105.40 296.11 105.48 298.53 C 109.37 298.96 113.28 298.69 117.17 299.00 C 117.81 299.16 119.08 299.48 119.72 299.65 C 119.22 299.96 118.21 300.59 117.70 300.90 C 113.81 302.17 109.68 302.66 105.69 301.57 C 102.35 299.03 101.65 294.01 103.62 290.43 Z" />
<path fill="#a71037" stroke="#a71037" stroke-width="0.09375" opacity="1.00" d=" M 131.91 287.99 C 135.73 287.53 139.57 287.18 143.35 286.42 C 147.12 286.83 149.67 290.45 150.29 293.96 C 150.80 297.04 148.97 299.76 147.81 302.46 C 145.94 303.07 144.11 304.92 142.05 304.26 C 136.84 302.22 131.52 305.42 126.13 304.65 L 126.21 304.36 C 126.32 304.10 126.53 303.58 126.64 303.32 C 123.55 302.99 120.45 302.43 117.70 300.90 C 118.21 300.59 119.22 299.96 119.72 299.65 C 123.61 299.50 127.84 300.36 131.42 298.46 C 135.41 296.60 133.74 290.95 131.91 287.99 Z" />
<path fill="#ff3c3f" stroke="#ff3c3f" stroke-width="0.09375" opacity="1.00" d=" M 105.55 291.27 C 107.63 287.85 112.13 287.90 115.62 288.47 C 118.28 289.21 121.04 289.53 123.80 289.31 C 122.61 289.92 121.37 290.47 120.30 291.30 C 119.12 293.81 118.96 296.76 117.17 299.00 C 113.28 298.69 109.37 298.96 105.48 298.53 C 105.40 296.11 105.07 293.66 105.55 291.27 Z" />
<path fill="#fc253e" stroke="#fc253e" stroke-width="0.09375" opacity="1.00" d=" M 115.62 288.47 C 121.05 288.25 126.51 288.79 131.91 287.99 C 133.74 290.95 135.41 296.60 131.42 298.46 C 127.84 300.36 123.61 299.50 119.72 299.65 C 119.08 299.48 117.81 299.16 117.17 299.00 C 118.96 296.76 119.12 293.81 120.30 291.30 C 121.37 290.47 122.61 289.92 123.80 289.31 C 121.04 289.53 118.28 289.21 115.62 288.47 Z" />
<path fill="#a03846" stroke="#a03846" stroke-width="0.09375" opacity="1.00" d=" M 105.69 301.57 C 109.68 302.66 113.81 302.17 117.70 300.90 C 120.45 302.43 123.55 302.99 126.64 303.32 C 126.53 303.58 126.32 304.10 126.21 304.36 C 124.90 304.45 123.58 304.55 122.27 304.57 C 118.96 304.41 115.59 302.62 112.39 304.20 C 110.41 305.20 108.40 303.95 106.50 303.41 C 106.25 302.78 105.98 302.17 105.69 301.57 Z" />
<path fill="#130820" stroke="#130820" stroke-width="0.09375" opacity="1.00" d=" M 142.05 304.26 C 144.11 304.92 145.94 303.07 147.81 302.46 C 149.61 302.71 151.32 303.36 152.93 304.19 C 156.22 305.53 159.59 306.68 162.81 308.20 C 166.27 309.48 169.70 310.83 173.20 312.01 C 168.20 313.61 164.10 308.85 159.06 309.47 C 160.42 312.40 163.82 312.82 166.52 313.84 C 166.04 314.57 165.07 316.03 164.59 316.76 C 163.95 316.67 162.68 316.49 162.04 316.40 C 158.24 314.23 154.00 313.02 150.13 311.02 C 159.87 319.93 170.45 327.92 180.51 336.48 C 180.23 337.07 179.67 338.25 179.38 338.84 C 181.26 340.86 183.27 343.69 186.39 342.14 C 187.32 344.26 187.85 346.73 189.81 348.21 C 192.46 350.46 195.28 352.60 197.18 355.59 C 195.72 355.04 194.28 354.47 192.86 353.86 C 188.51 350.45 184.02 347.21 179.82 343.61 C 172.88 337.39 165.29 331.97 158.12 326.03 C 153.99 322.42 149.58 319.15 145.45 315.52 C 143.20 313.62 141.01 311.30 137.90 311.01 C 138.36 312.15 138.66 313.45 139.62 314.31 C 144.38 319.00 149.89 322.81 155.10 326.96 C 162.65 333.29 170.10 339.75 177.85 345.83 C 177.85 346.33 177.86 347.34 177.86 347.85 C 176.60 347.55 175.34 347.25 174.10 346.91 C 166.14 340.25 158.15 333.63 150.22 326.93 C 146.57 323.88 143.38 320.11 139.06 317.99 C 139.36 318.46 139.97 319.39 140.27 319.86 C 144.25 328.82 148.78 337.52 152.74 346.49 C 152.31 348.69 151.59 350.85 150.34 352.73 C 147.90 347.70 145.29 342.76 143.10 337.62 C 138.53 327.31 133.61 317.17 128.82 306.96 C 126.01 308.14 127.89 311.20 128.66 313.17 C 133.01 321.67 136.58 330.54 140.75 339.13 C 145.38 348.01 148.63 357.53 153.32 366.37 C 155.58 370.41 156.88 374.91 159.35 378.83 C 158.72 379.18 157.46 379.88 156.83 380.23 C 153.95 373.46 150.88 366.76 147.76 360.10 C 146.55 357.03 145.14 354.06 143.78 351.07 C 142.46 348.06 141.14 345.06 139.81 342.07 C 138.48 339.07 137.09 336.09 135.80 333.08 C 134.52 330.02 133.16 326.99 131.74 324.01 C 131.63 323.70 131.41 323.09 131.31 322.78 C 129.36 319.13 128.18 315.13 126.17 311.52 C 125.90 311.49 125.36 311.44 125.09 311.41 C 125.44 309.15 125.69 306.88 126.13 304.65 C 131.52 305.42 136.84 302.22 142.05 304.26 Z" />
<path fill="#150823" stroke="#150823" stroke-width="0.09375" opacity="1.00" d=" M 94.11 308.21 C 98.22 306.56 102.27 304.72 106.50 303.41 C 108.40 303.95 110.41 305.20 112.39 304.20 C 115.59 302.62 118.96 304.41 122.27 304.57 C 122.60 306.79 122.85 309.05 122.69 311.30 C 122.47 311.72 122.03 312.56 121.81 312.98 C 120.69 315.72 119.40 318.38 118.24 321.10 C 116.87 324.09 115.59 327.11 114.24 330.11 C 112.98 332.65 112.06 335.34 110.80 337.89 C 109.32 341.32 107.64 344.66 106.27 348.14 C 105.75 349.22 105.24 350.31 104.77 351.43 C 104.21 350.81 103.09 349.59 102.52 348.98 C 101.23 351.76 99.94 354.56 98.21 357.11 C 98.61 354.77 99.13 352.45 99.81 350.18 C 103.15 340.53 108.15 331.57 111.98 322.12 C 113.61 317.71 116.74 313.75 116.89 308.89 C 110.44 311.85 111.34 321.03 105.60 324.77 C 99.74 329.84 93.75 334.76 87.90 339.85 C 86.63 339.70 85.36 339.56 84.08 339.42 C 83.57 340.36 83.06 341.30 82.55 342.24 C 81.35 342.64 80.16 343.04 78.97 343.45 C 79.45 343.75 80.41 344.33 80.89 344.62 C 77.14 346.08 73.29 347.31 70.14 349.92 C 70.21 349.30 70.34 348.07 70.41 347.46 C 71.81 345.99 73.11 344.45 74.36 342.86 C 78.58 340.12 81.60 336.03 85.41 332.80 C 91.80 327.02 98.60 321.69 105.00 315.92 C 106.31 314.98 106.79 313.45 107.07 311.94 C 102.79 313.27 99.85 316.81 96.46 319.52 C 92.01 323.14 87.52 326.72 83.28 330.59 C 77.73 335.56 71.63 339.88 66.24 345.03 C 65.77 344.72 64.81 344.10 64.33 343.79 C 72.84 336.82 81.07 329.50 89.66 322.63 C 92.49 320.21 95.54 318.03 98.10 315.31 C 92.00 317.21 86.40 320.45 80.46 322.78 C 79.94 321.57 79.42 320.37 78.90 319.17 C 80.69 318.50 82.47 317.82 84.26 317.14 C 90.83 314.57 97.51 312.15 103.77 308.87 C 103.71 308.51 103.59 307.79 103.53 307.43 C 100.98 306.84 98.63 308.26 96.32 309.11 C 91.78 310.90 87.26 312.74 82.82 314.76 C 78.87 316.08 74.93 317.45 71.16 319.23 C 70.53 319.13 69.28 318.91 68.66 318.81 C 71.41 317.93 74.25 317.10 76.47 315.17 C 82.26 312.62 88.21 310.46 94.11 308.21 Z" />
<path fill="#384064" stroke="#384064" stroke-width="0.09375" opacity="1.00" d=" M 122.27 304.57 C 123.58 304.55 124.90 304.45 126.21 304.36 L 126.13 304.65 C 125.69 306.88 125.44 309.15 125.09 311.41 C 124.49 311.38 123.29 311.33 122.69 311.30 C 122.85 309.05 122.60 306.79 122.27 304.57 Z" />
<path fill="#611d46" stroke="#611d46" stroke-width="0.09375" opacity="1.00" d=" M 96.32 309.11 C 98.63 308.26 100.98 306.84 103.53 307.43 C 103.59 307.79 103.71 308.51 103.77 308.87 C 97.51 312.15 90.83 314.57 84.26 317.14 C 84.36 316.62 84.57 315.58 84.67 315.06 C 84.21 314.98 83.28 314.83 82.82 314.76 C 87.26 312.74 91.78 310.90 96.32 309.11 Z" />
<path fill="#6c1b47" stroke="#6c1b47" stroke-width="0.09375" opacity="1.00" d=" M 128.66 313.17 C 127.89 311.20 126.01 308.14 128.82 306.96 C 133.61 317.17 138.53 327.31 143.10 337.62 C 142.65 337.58 141.75 337.50 141.30 337.45 C 141.16 337.87 140.89 338.71 140.75 339.13 C 136.58 330.54 133.01 321.67 128.66 313.17 Z" />
<path fill="#691d49" stroke="#691d49" stroke-width="0.09375" opacity="1.00" d=" M 105.60 324.77 C 111.34 321.03 110.44 311.85 116.89 308.89 C 116.74 313.75 113.61 317.71 111.98 322.12 C 108.15 331.57 103.15 340.53 99.81 350.18 L 98.83 349.48 C 98.73 348.59 98.65 347.70 98.60 346.82 C 99.07 344.42 99.23 341.97 99.14 339.53 C 100.97 334.47 104.12 329.96 105.60 324.77 Z" />
<path fill="#6e2a61" stroke="#6e2a61" stroke-width="0.09375" opacity="1.00" d=" M 159.06 309.47 C 164.10 308.85 168.20 313.61 173.20 312.01 C 176.87 313.37 180.55 314.70 184.17 316.18 C 183.53 316.59 182.25 317.40 181.61 317.80 C 180.32 317.74 179.03 317.76 177.74 317.74 C 173.83 316.95 170.28 315.08 166.52 313.84 C 163.82 312.82 160.42 312.40 159.06 309.47 M 172.47 313.11 C 172.97 314.69 177.15 316.29 177.80 314.34 C 176.28 313.43 174.20 312.91 172.47 313.11 Z" />
<path fill="#6c1641" stroke="#6c1641" stroke-width="0.09375" opacity="1.00" d=" M 137.90 311.01 C 141.01 311.30 143.20 313.62 145.45 315.52 C 149.58 319.15 153.99 322.42 158.12 326.03 C 157.06 325.71 156.00 325.41 154.93 325.13 C 154.97 325.59 155.06 326.50 155.10 326.96 C 149.89 322.81 144.38 319.00 139.62 314.31 C 138.66 313.45 138.36 312.15 137.90 311.01 Z" />
<path fill="#721a54" stroke="#721a54" stroke-width="0.09375" opacity="1.00" d=" M 96.46 319.52 C 99.85 316.81 102.79 313.27 107.07 311.94 C 106.79 313.45 106.31 314.98 105.00 315.92 C 98.60 321.69 91.80 327.02 85.41 332.80 C 84.70 332.06 83.99 331.32 83.28 330.59 C 87.52 326.72 92.01 323.14 96.46 319.52 Z" />
<path fill="#3f0b2b" stroke="#3f0b2b" stroke-width="0.09375" opacity="1.00" d=" M 172.47 313.11 C 174.20 312.91 176.28 313.43 177.80 314.34 C 177.15 316.29 172.97 314.69 172.47 313.11 Z" />
<path fill="#391542" stroke="#391542" stroke-width="0.09375" opacity="1.00" d=" M 166.52 313.84 C 170.28 315.08 173.83 316.95 177.74 317.74 C 187.67 321.63 197.39 326.04 207.34 329.88 C 205.77 332.01 203.45 333.27 200.80 333.43 C 196.86 331.65 192.89 329.92 188.93 328.19 C 180.66 324.61 172.46 320.87 164.14 317.44 L 164.59 316.76 C 165.07 316.03 166.04 314.57 166.52 313.84 Z" />
<path fill="#44194c" stroke="#44194c" stroke-width="0.09375" opacity="1.00" d=" M 29.86 332.55 C 45.44 326.87 60.78 320.47 76.47 315.17 C 74.25 317.10 71.41 317.93 68.66 318.81 C 69.28 318.91 70.53 319.13 71.16 319.23 C 67.54 321.07 63.65 322.29 59.95 323.93 C 51.74 327.26 43.35 330.16 35.09 333.34 C 33.56 333.80 32.13 335.17 33.37 336.75 C 40.06 335.56 45.87 331.63 52.31 329.59 C 54.30 330.93 56.48 331.95 58.85 332.38 C 51.03 335.78 43.22 339.19 35.37 342.51 C 35.20 345.91 34.78 349.30 34.68 352.71 C 32.91 349.40 33.53 345.58 33.47 341.99 C 31.27 339.47 29.09 336.93 26.76 334.54 C 27.81 333.89 28.84 333.23 29.86 332.55 Z" />
<path fill="#6c265e" stroke="#6c265e" stroke-width="0.09375" opacity="1.00" d=" M 71.16 319.23 C 74.93 317.45 78.87 316.08 82.82 314.76 C 83.28 314.83 84.21 314.98 84.67 315.06 C 84.57 315.58 84.36 316.62 84.26 317.14 C 82.47 317.82 80.69 318.50 78.90 319.17 C 73.70 321.03 68.68 323.36 63.40 325.04 C 62.25 324.66 61.10 324.30 59.95 323.93 C 63.65 322.29 67.54 321.07 71.16 319.23 Z" />
<path fill="#965190" stroke="#965190" stroke-width="0.09375" opacity="1.00" d=" M 177.74 317.74 C 179.03 317.76 180.32 317.74 181.61 317.80 C 184.87 318.63 187.83 320.31 191.02 321.34 C 191.58 320.91 192.70 320.06 193.26 319.63 C 193.75 319.80 194.71 320.15 195.19 320.32 C 194.41 320.50 192.83 320.86 192.05 321.04 C 193.03 321.84 194.11 322.47 195.29 322.93 C 203.79 325.98 212.27 329.07 220.79 332.05 C 223.37 333.07 226.49 333.71 227.83 336.47 C 225.68 336.70 223.52 336.42 221.57 335.51 C 216.87 333.51 212.16 331.55 207.34 329.88 C 197.39 326.04 187.67 321.63 177.74 317.74 Z" />
<path fill="#52214b" stroke="#52214b" stroke-width="0.09375" opacity="1.00" d=" M 181.61 317.80 C 182.25 317.40 183.53 316.59 184.17 316.18 C 187.14 317.49 190.20 318.58 193.26 319.63 C 192.70 320.06 191.58 320.91 191.02 321.34 C 187.83 320.31 184.87 318.63 181.61 317.80 Z" />
<path fill="#2b123a" stroke="#2b123a" stroke-width="0.09375" opacity="1.00" d=" M 63.40 325.04 C 68.68 323.36 73.70 321.03 78.90 319.17 C 79.42 320.37 79.94 321.57 80.46 322.78 C 73.36 326.21 66.01 329.09 58.85 332.38 C 56.48 331.95 54.30 330.93 52.31 329.59 C 56.08 328.24 59.62 326.35 63.40 325.04 Z" />
<path fill="#561b55" stroke="#561b55" stroke-width="0.09375" opacity="1.00" d=" M 195.19 320.32 C 207.09 325.03 219.07 329.54 231.09 333.93 C 231.21 340.51 231.27 347.09 231.36 353.68 C 230.88 355.18 230.35 356.67 229.88 358.18 C 229.90 354.88 229.75 351.58 229.70 348.29 C 229.89 344.38 230.06 340.45 229.44 336.57 C 227.38 337.75 225.36 338.99 223.36 340.26 C 223.30 345.20 223.31 350.16 224.17 355.05 C 224.81 358.24 224.11 361.45 222.85 364.40 C 222.36 357.03 222.99 349.56 221.64 342.28 C 214.58 339.62 207.74 336.39 200.80 333.43 C 203.45 333.27 205.77 332.01 207.34 329.88 C 212.16 331.55 216.87 333.51 221.57 335.51 C 223.52 336.42 225.68 336.70 227.83 336.47 C 226.49 333.71 223.37 333.07 220.79 332.05 C 212.27 329.07 203.79 325.98 195.29 322.93 C 194.11 322.47 193.03 321.84 192.05 321.04 C 192.83 320.86 194.41 320.50 195.19 320.32 Z" />
<path fill="#8e4189" stroke="#8e4189" stroke-width="0.09375" opacity="1.00" d=" M 35.09 333.34 C 43.35 330.16 51.74 327.26 59.95 323.93 C 61.10 324.30 62.25 324.66 63.40 325.04 C 59.62 326.35 56.08 328.24 52.31 329.59 C 45.87 331.63 40.06 335.56 33.37 336.75 C 32.13 335.17 33.56 333.80 35.09 333.34 Z" />
<path fill="#721a54" stroke="#721a54" stroke-width="0.09375" opacity="1.00" d=" M 154.93 325.13 C 156.00 325.41 157.06 325.71 158.12 326.03 C 165.29 331.97 172.88 337.39 179.82 343.61 C 179.17 344.35 178.51 345.09 177.85 345.83 C 170.10 339.75 162.65 333.29 155.10 326.96 C 155.06 326.50 154.97 325.59 154.93 325.13 Z" />
<path fill="#792766" stroke="#792766" stroke-width="0.09375" opacity="1.00" d=" M 83.28 330.59 C 83.99 331.32 84.70 332.06 85.41 332.80 C 81.60 336.03 78.58 340.12 74.36 342.86 C 69.41 345.35 66.00 349.86 61.51 353.00 C 60.90 352.65 59.67 351.94 59.05 351.59 C 61.55 349.52 64.05 347.43 66.24 345.03 C 71.63 339.88 77.73 335.56 83.28 330.59 Z" />
<path fill="#864e86" stroke="#864e86" stroke-width="0.09375" opacity="1.00" d=" M 25.41 334.20 C 26.82 333.47 28.31 332.90 29.86 332.55 C 28.84 333.23 27.81 333.89 26.76 334.54 C 29.09 336.93 31.27 339.47 33.47 341.99 C 33.53 345.58 32.91 349.40 34.68 352.71 C 34.96 358.05 34.33 363.38 34.24 368.72 C 34.65 368.65 35.45 368.53 35.85 368.46 C 34.34 370.44 32.35 371.95 30.33 373.38 C 29.91 362.08 30.94 350.74 30.22 339.46 C 29.65 339.51 28.51 339.62 27.94 339.68 C 27.09 349.28 27.77 358.99 26.84 368.60 C 26.16 371.34 26.17 374.18 26.16 376.99 C 25.78 377.34 25.04 378.04 24.66 378.39 C 24.44 363.65 25.59 348.94 25.41 334.20 M 32.58 358.89 C 32.07 362.33 31.86 365.82 32.24 369.28 C 34.00 366.18 33.27 362.23 32.58 358.89 Z" />
<path fill="#cbbecb" stroke="#cbbecb" stroke-width="0.09375" opacity="1.00" d=" M 231.09 333.93 C 231.42 334.06 232.09 334.33 232.42 334.46 C 232.63 347.30 232.88 360.15 232.64 373.00 C 232.58 376.40 232.70 379.89 233.90 383.12 C 233.48 382.80 232.65 382.15 232.23 381.83 C 232.45 372.44 232.25 363.03 231.36 353.68 C 231.27 347.09 231.21 340.51 231.09 333.93 Z" />
<path fill="#7c235d" stroke="#7c235d" stroke-width="0.09375" opacity="1.00" d=" M 141.30 337.45 C 141.75 337.50 142.65 337.58 143.10 337.62 C 145.29 342.76 147.90 347.70 150.34 352.73 C 152.46 357.64 155.32 362.25 156.83 367.42 C 156.02 366.40 155.19 365.40 154.37 364.40 C 154.11 364.90 153.58 365.88 153.32 366.37 C 148.63 357.53 145.38 348.01 140.75 339.13 C 140.89 338.71 141.16 337.87 141.30 337.45 Z" />
<path fill="#31123d" stroke="#31123d" stroke-width="0.09375" opacity="1.00" d=" M 180.51 336.48 C 189.72 344.25 199.01 351.95 208.00 359.98 C 210.88 364.03 213.76 368.21 217.72 371.29 C 219.59 372.76 221.39 374.32 223.09 375.98 C 222.56 376.34 221.50 377.07 220.97 377.44 C 217.18 373.95 212.78 371.21 208.95 367.76 C 203.96 362.69 197.61 359.17 192.86 353.86 C 194.28 354.47 195.72 355.04 197.18 355.59 C 195.28 352.60 192.46 350.46 189.81 348.21 C 187.85 346.73 187.32 344.26 186.39 342.14 C 183.27 343.69 181.26 340.86 179.38 338.84 C 179.67 338.25 180.23 337.07 180.51 336.48 Z" />
<path fill="#a7649c" stroke="#a7649c" stroke-width="0.09375" opacity="1.00" d=" M 223.36 340.26 C 225.36 338.99 227.38 337.75 229.44 336.57 C 230.06 340.45 229.89 344.38 229.70 348.29 C 229.52 345.12 229.60 341.78 227.99 338.93 C 225.64 342.92 227.28 347.65 227.16 351.99 C 227.14 360.19 228.04 368.43 227.12 376.60 C 225.49 375.42 223.92 374.15 222.50 372.71 C 222.87 369.95 222.85 367.17 222.85 364.40 C 224.11 361.45 224.81 358.24 224.17 355.05 C 223.31 350.16 223.30 345.20 223.36 340.26 Z" />
<path fill="#3a1345" stroke="#3a1345" stroke-width="0.09375" opacity="1.00" d=" M 84.08 339.42 C 85.36 339.56 86.63 339.70 87.90 339.85 C 77.56 348.49 67.08 356.99 56.52 365.37 C 53.60 365.30 50.85 366.29 48.24 367.49 C 47.86 367.11 47.09 366.34 46.70 365.96 C 52.08 362.14 56.29 356.99 61.51 353.00 C 66.00 349.86 69.41 345.35 74.36 342.86 C 73.11 344.45 71.81 345.99 70.41 347.46 C 70.34 348.07 70.21 349.30 70.14 349.92 C 73.29 347.31 77.14 346.08 80.89 344.62 C 80.41 344.33 79.45 343.75 78.97 343.45 C 80.16 343.04 81.35 342.64 82.55 342.24 C 83.06 341.30 83.57 340.36 84.08 339.42 Z" />
<path fill="#cba5c8" stroke="#cba5c8" stroke-width="0.09375" opacity="1.00" d=" M 26.84 368.60 C 27.77 358.99 27.09 349.28 27.94 339.68 C 28.51 339.62 29.65 339.51 30.22 339.46 C 30.94 350.74 29.91 362.08 30.33 373.38 C 29.11 374.27 27.89 375.14 26.67 376.02 C 26.69 373.54 26.73 371.07 26.84 368.60 Z" />
<path fill="#4d1b4b" stroke="#4d1b4b" stroke-width="0.09375" opacity="1.00" d=" M 76.53 388.46 C 83.89 372.07 91.31 355.70 99.14 339.53 C 99.23 341.97 99.07 344.42 98.60 346.82 C 93.25 356.64 89.03 367.01 83.99 377.00 C 81.98 381.75 79.34 386.23 77.54 391.07 C 77.90 391.74 78.60 393.10 78.96 393.78 C 83.08 388.50 84.40 381.71 87.60 375.90 C 88.89 377.68 90.19 379.47 91.46 381.26 C 89.43 385.57 87.66 390.00 85.44 394.21 C 84.05 396.90 84.60 400.03 84.43 402.94 C 84.53 406.98 83.91 410.98 83.93 415.02 C 83.56 415.17 82.83 415.47 82.46 415.62 C 82.77 409.04 82.67 402.44 82.47 395.86 C 80.42 395.22 78.37 394.57 76.28 394.09 C 76.17 394.41 75.93 395.04 75.81 395.36 C 75.70 406.33 75.37 417.32 75.74 428.29 C 74.33 418.58 75.92 408.75 75.06 399.00 C 74.87 396.64 74.74 394.26 74.66 391.90 C 75.34 390.78 76.00 389.65 76.53 388.46 Z" />
<path fill="#dda4d1" stroke="#dda4d1" stroke-width="0.09375" opacity="1.00" d=" M 227.16 351.99 C 227.28 347.65 225.64 342.92 227.99 338.93 C 229.60 341.78 229.52 345.12 229.70 348.29 C 229.75 351.58 229.90 354.88 229.88 358.18 C 229.57 364.82 230.83 371.40 230.65 378.05 C 229.48 377.55 228.31 377.06 227.12 376.60 C 228.04 368.43 227.14 360.19 227.16 351.99 Z" />
<path fill="#581a56" stroke="#581a56" stroke-width="0.09375" opacity="1.00" d=" M 35.85 368.46 C 44.99 359.85 54.64 351.76 64.33 343.79 C 64.81 344.10 65.77 344.72 66.24 345.03 C 64.05 347.43 61.55 349.52 59.05 351.59 C 48.03 361.01 36.99 370.39 25.85 379.66 C 23.53 381.64 20.23 383.24 20.13 386.74 C 21.94 386.73 23.71 386.31 24.97 384.93 C 32.18 378.57 39.10 371.87 46.70 365.96 C 47.09 366.34 47.86 367.11 48.24 367.49 C 50.85 366.29 53.60 365.30 56.52 365.37 C 51.43 369.52 46.32 373.64 41.08 377.60 C 37.72 378.93 35.13 381.58 31.79 382.96 C 28.35 384.47 26.32 388.22 22.47 388.94 C 20.56 387.83 18.81 386.50 17.21 384.99 C 19.76 382.87 22.20 380.62 24.66 378.39 C 25.04 378.04 25.78 377.34 26.16 376.99 C 26.17 374.18 26.16 371.34 26.84 368.60 C 26.73 371.07 26.69 373.54 26.67 376.02 C 27.89 375.14 29.11 374.27 30.33 373.38 C 32.35 371.95 34.34 370.44 35.85 368.46 Z" />
<path fill="#6e2a61" stroke="#6e2a61" stroke-width="0.09375" opacity="1.00" d=" M 177.85 345.83 C 178.51 345.09 179.17 344.35 179.82 343.61 C 184.02 347.21 188.51 350.45 192.86 353.86 C 197.61 359.17 203.96 362.69 208.95 367.76 C 208.33 368.10 207.07 368.77 206.44 369.10 C 196.51 361.84 187.85 353.00 177.85 345.83 Z" />
<path fill="#391a4a" stroke="#391a4a" stroke-width="0.09375" opacity="1.00" d=" M 177.85 345.83 C 187.85 353.00 196.51 361.84 206.44 369.10 C 210.82 372.52 214.87 376.32 219.06 379.96 C 218.71 380.43 218.02 381.35 217.68 381.82 C 203.09 370.25 188.31 358.92 174.10 346.91 C 175.34 347.25 176.60 347.55 177.86 347.85 C 177.86 347.34 177.85 346.33 177.85 345.83 Z" />
<path fill="#8a357c" stroke="#8a357c" stroke-width="0.09375" opacity="1.00" d=" M 98.60 346.82 C 98.65 347.70 98.73 348.59 98.83 349.48 C 95.64 358.50 91.42 367.13 87.60 375.90 C 84.40 381.71 83.08 388.50 78.96 393.78 C 78.60 393.10 77.90 391.74 77.54 391.07 C 79.34 386.23 81.98 381.75 83.99 377.00 C 89.03 367.01 93.25 356.64 98.60 346.82 Z" />
<path fill="#24153a" stroke="#24153a" stroke-width="0.09375" opacity="1.00" d=" M 150.34 352.73 C 151.59 350.85 152.31 348.69 152.74 346.49 C 156.47 353.89 159.70 361.54 163.33 369.00 C 162.78 370.58 162.22 372.16 161.66 373.75 C 160.62 371.92 159.35 370.25 157.86 368.77 C 157.60 368.43 157.09 367.76 156.83 367.42 C 155.32 362.25 152.46 357.64 150.34 352.73 Z" />
<path fill="#33133e" stroke="#33133e" stroke-width="0.09375" opacity="1.00" d=" M 98.21 357.11 C 99.94 354.56 101.23 351.76 102.52 348.98 C 103.09 349.59 104.21 350.81 104.77 351.43 C 100.60 361.49 95.82 371.28 91.46 381.26 C 90.19 379.47 88.89 377.68 87.60 375.90 C 91.42 367.13 95.64 358.50 98.83 349.48 L 99.81 350.18 C 99.13 352.45 98.61 354.77 98.21 357.11 Z" />
<path fill="#923e83" stroke="#923e83" stroke-width="0.09375" opacity="1.00" d=" M 25.85 379.66 C 36.99 370.39 48.03 361.01 59.05 351.59 C 59.67 351.94 60.90 352.65 61.51 353.00 C 56.29 356.99 52.08 362.14 46.70 365.96 C 39.10 371.87 32.18 378.57 24.97 384.93 C 23.71 386.31 21.94 386.73 20.13 386.74 C 20.23 383.24 23.53 381.64 25.85 379.66 Z" />
<path fill="#95728f" stroke="#95728f" stroke-width="0.09375" opacity="1.00" d=" M 231.36 353.68 C 232.25 363.03 232.45 372.44 232.23 381.83 C 230.25 380.39 228.30 378.80 227.12 376.60 C 228.31 377.06 229.48 377.55 230.65 378.05 C 230.83 371.40 229.57 364.82 229.88 358.18 C 230.35 356.67 230.88 355.18 231.36 353.68 Z" />
<path fill="#6b356e" stroke="#6b356e" stroke-width="0.09375" opacity="1.00" d=" M 32.58 358.89 C 33.27 362.23 34.00 366.18 32.24 369.28 C 31.86 365.82 32.07 362.33 32.58 358.89 Z" />
<path fill="#521b4c" stroke="#521b4c" stroke-width="0.09375" opacity="1.00" d=" M 208.00 359.98 C 213.02 364.00 217.84 368.28 222.50 372.71 C 223.92 374.15 225.49 375.42 227.12 376.60 C 228.30 378.80 230.25 380.39 232.23 381.83 C 232.65 382.15 233.48 382.80 233.90 383.12 C 234.64 383.73 235.38 384.36 236.12 384.99 C 236.25 385.75 236.50 387.28 236.63 388.04 C 236.14 387.51 235.18 386.46 234.70 385.93 C 232.56 386.77 230.52 387.87 228.71 389.29 C 228.28 389.13 227.42 388.79 226.99 388.63 L 225.42 387.93 C 225.56 391.05 225.57 394.19 225.33 397.31 C 225.30 393.77 225.13 390.22 224.42 386.75 C 224.09 386.53 223.43 386.09 223.10 385.88 C 221.19 384.67 219.42 383.25 217.68 381.82 C 218.02 381.35 218.71 380.43 219.06 379.96 C 222.29 382.19 224.98 385.04 227.95 387.59 C 229.24 387.07 229.64 385.85 229.89 384.62 C 226.76 382.43 223.82 379.99 220.97 377.44 C 221.50 377.07 222.56 376.34 223.09 375.98 C 221.39 374.32 219.59 372.76 217.72 371.29 C 213.76 368.21 210.88 364.03 208.00 359.98 Z" />
<path fill="#894484" stroke="#894484" stroke-width="0.09375" opacity="1.00" d=" M 153.32 366.37 C 153.58 365.88 154.11 364.90 154.37 364.40 C 155.19 365.40 156.02 366.40 156.83 367.42 C 157.09 367.76 157.60 368.43 157.86 368.77 C 160.87 377.70 166.56 385.48 169.43 394.46 C 170.60 394.50 171.72 394.73 172.79 395.16 C 173.97 401.15 172.78 407.34 173.99 413.35 C 174.17 417.75 173.99 422.15 173.89 426.55 C 173.25 424.75 172.58 422.91 172.61 420.98 C 172.56 415.07 171.55 409.21 171.73 403.30 C 170.98 403.97 170.23 404.64 169.49 405.32 C 169.57 402.60 169.40 399.89 168.93 397.22 C 168.30 397.40 167.04 397.75 166.41 397.92 C 166.38 395.77 166.56 393.50 165.51 391.55 C 163.35 387.36 161.95 382.79 159.35 378.83 C 156.88 374.91 155.58 370.41 153.32 366.37 Z" />
<path fill="#923e83" stroke="#923e83" stroke-width="0.09375" opacity="1.00" d=" M 206.44 369.10 C 207.07 368.77 208.33 368.10 208.95 367.76 C 212.78 371.21 217.18 373.95 220.97 377.44 C 223.82 379.99 226.76 382.43 229.89 384.62 C 229.64 385.85 229.24 387.07 227.95 387.59 C 224.98 385.04 222.29 382.19 219.06 379.96 C 214.87 376.32 210.82 372.52 206.44 369.10 Z" />
<path fill="#3d1445" stroke="#3d1445" stroke-width="0.09375" opacity="1.00" d=" M 157.86 368.77 C 159.35 370.25 160.62 371.92 161.66 373.75 C 162.22 372.16 162.78 370.58 163.33 369.00 C 164.21 370.88 165.02 372.80 165.95 374.67 C 168.15 380.69 171.00 386.45 173.64 392.28 C 174.49 394.05 174.26 396.06 174.27 397.97 C 174.12 403.09 174.19 408.22 173.99 413.35 C 172.78 407.34 173.97 401.15 172.79 395.16 C 171.72 394.73 170.60 394.50 169.43 394.46 C 166.56 385.48 160.87 377.70 157.86 368.77 Z" />
<path fill="#d0b1cf" stroke="#d0b1cf" stroke-width="0.09375" opacity="1.00" d=" M 165.95 374.67 C 168.93 377.83 169.96 382.19 171.97 385.95 C 173.46 389.53 176.12 392.91 175.63 397.01 C 175.31 406.65 175.58 416.30 175.20 425.94 C 174.55 431.02 174.66 436.15 174.25 441.26 C 173.89 436.36 174.24 431.45 173.89 426.55 C 173.99 422.15 174.17 417.75 173.99 413.35 C 174.19 408.22 174.12 403.09 174.27 397.97 C 174.26 396.06 174.49 394.05 173.64 392.28 C 171.00 386.45 168.15 380.69 165.95 374.67 Z" />
<path fill="#965190" stroke="#965190" stroke-width="0.09375" opacity="1.00" d=" M 31.79 382.96 C 35.13 381.58 37.72 378.93 41.08 377.60 C 39.00 379.76 36.66 381.66 34.10 383.23 C 33.20 383.89 32.47 384.76 32.59 385.96 C 32.22 390.12 32.12 394.30 32.18 398.48 C 31.93 403.80 31.57 409.11 31.03 414.42 C 29.46 405.62 30.89 396.58 30.30 387.68 C 29.44 387.71 27.74 387.76 26.89 387.79 C 25.05 391.83 25.20 396.33 24.56 400.64 C 21.38 397.56 24.04 392.72 22.47 388.94 C 26.32 388.22 28.35 384.47 31.79 382.96 Z" />
<path fill="#532b5b" stroke="#532b5b" stroke-width="0.09375" opacity="1.00" d=" M 159.35 378.83 C 161.95 382.79 163.35 387.36 165.51 391.55 C 166.56 393.50 166.38 395.77 166.41 397.92 C 166.57 407.27 166.04 416.65 166.68 425.97 C 168.17 432.60 166.14 439.53 168.08 446.06 C 167.70 449.03 166.62 445.98 166.51 444.66 C 166.48 437.78 167.01 430.81 165.64 424.02 C 164.57 414.73 164.91 405.34 164.22 396.03 L 163.46 394.93 C 161.21 390.05 158.80 385.23 156.83 380.23 C 157.46 379.88 158.72 379.18 159.35 378.83 Z" />
<path fill="#c7adc4" stroke="#c7adc4" stroke-width="0.09375" opacity="1.00" d=" M 32.59 385.96 C 32.47 384.76 33.20 383.89 34.10 383.23 C 33.50 387.97 33.68 392.77 33.05 397.51 L 32.18 398.48 C 32.12 394.30 32.22 390.12 32.59 385.96 Z" />
<path fill="#ab649c" stroke="#ab649c" stroke-width="0.09375" opacity="1.00" d=" M 13.52 405.68 C 15.07 398.85 14.32 391.44 17.21 384.99 C 18.81 386.50 20.56 387.83 22.47 388.94 C 24.04 392.72 21.38 397.56 24.56 400.64 C 24.55 400.73 24.52 400.93 24.51 401.02 C 24.06 401.38 23.61 401.74 23.15 402.10 C 23.24 402.39 23.41 402.95 23.49 403.23 C 22.52 411.78 20.42 420.15 19.04 428.64 C 16.96 423.81 18.90 418.57 19.44 413.63 C 20.36 409.33 19.32 405.01 18.49 400.79 C 18.62 396.86 20.89 392.47 18.54 388.85 C 15.78 395.93 15.63 403.72 14.57 411.18 C 14.33 409.33 13.89 407.50 13.52 405.68 Z" />
<path fill="#d2b0cc" stroke="#d2b0cc" stroke-width="0.09375" opacity="1.00" d=" M 236.12 384.99 C 237.26 385.99 237.86 387.39 237.99 388.90 C 239.47 400.43 241.82 411.87 242.20 423.52 L 241.50 422.46 C 239.28 411.08 239.62 399.27 236.63 388.04 C 236.50 387.28 236.25 385.75 236.12 384.99 Z" />
<path fill="#d8b9d1" stroke="#d8b9d1" stroke-width="0.09375" opacity="1.00" d=" M 223.10 385.88 C 223.43 386.09 224.09 386.53 224.42 386.75 C 225.13 390.22 225.30 393.77 225.33 397.31 C 225.26 399.23 225.25 401.15 225.37 403.08 C 225.71 407.88 225.88 412.69 226.18 417.50 C 226.04 419.06 225.91 420.63 225.79 422.21 C 224.08 410.16 224.43 397.96 223.10 385.88 Z" />
<path fill="#9d5a92" stroke="#9d5a92" stroke-width="0.09375" opacity="1.00" d=" M 228.71 389.29 C 230.52 387.87 232.56 386.77 234.70 385.93 C 235.18 386.46 236.14 387.51 236.63 388.04 C 239.62 399.27 239.28 411.08 241.50 422.46 C 241.35 424.98 241.09 427.51 240.94 430.04 C 240.38 428.21 239.22 426.70 237.87 425.38 C 235.70 414.28 234.04 403.09 232.10 391.95 C 231.79 391.31 231.18 390.02 230.87 389.38 C 229.55 391.80 230.32 394.53 230.67 397.10 C 231.21 400.68 231.69 404.28 232.30 407.86 C 232.37 410.58 232.04 413.30 231.62 415.99 C 230.78 406.74 228.07 397.83 226.99 388.63 C 227.42 388.79 228.28 389.13 228.71 389.29 Z" />
<path fill="#af709b" stroke="#af709b" stroke-width="0.09375" opacity="1.00" d=" M 26.89 387.79 C 27.74 387.76 29.44 387.71 30.30 387.68 C 30.89 396.58 29.46 405.62 31.03 414.42 C 31.05 417.09 31.03 419.77 31.14 422.46 C 29.89 424.14 28.44 425.65 26.97 427.13 C 21.62 420.16 26.13 410.97 23.49 403.23 C 23.41 402.95 23.24 402.39 23.15 402.10 C 23.61 401.74 24.06 401.38 24.51 401.02 C 24.52 400.93 24.55 400.73 24.56 400.64 C 25.20 396.33 25.05 391.83 26.89 387.79 M 26.81 389.55 C 25.99 396.03 26.97 402.61 25.79 409.06 C 25.55 413.01 25.31 417.04 25.91 420.96 C 27.99 422.81 28.69 419.52 28.45 418.06 C 28.37 408.41 28.59 398.76 28.58 389.12 L 26.81 389.55 Z" />
<path fill="#ddadcb" stroke="#ddadcb" stroke-width="0.09375" opacity="1.00" d=" M 18.54 388.85 C 20.89 392.47 18.62 396.86 18.49 400.79 C 15.75 420.81 12.95 440.81 9.85 460.77 C 9.21 460.98 7.92 461.39 7.27 461.60 C 7.01 462.34 6.49 463.81 6.23 464.54 C 6.48 455.20 7.81 445.90 9.44 436.71 C 9.78 438.10 10.15 439.51 10.51 440.91 C 11.21 430.91 13.62 421.14 14.57 411.18 C 15.63 403.72 15.78 395.93 18.54 388.85 Z" />
<path fill="#c872ab" stroke="#c872ab" stroke-width="0.09375" opacity="1.00" d=" M 225.42 387.93 L 226.99 388.63 C 228.07 397.83 230.78 406.74 231.62 415.99 C 232.04 413.30 232.37 410.58 232.30 407.86 C 233.28 413.22 234.20 418.61 234.95 424.02 C 235.20 425.37 234.83 426.57 233.86 427.62 C 233.71 426.17 233.58 424.72 233.46 423.28 C 233.02 423.32 232.12 423.39 231.67 423.43 C 231.54 424.26 231.27 425.92 231.14 426.76 C 228.53 426.49 227.13 424.15 225.79 422.21 C 225.91 420.63 226.04 419.06 226.18 417.50 C 227.74 411.70 227.25 405.61 226.60 399.72 C 226.16 400.83 225.75 401.95 225.37 403.08 C 225.25 401.15 225.26 399.23 225.33 397.31 C 225.57 394.19 225.56 391.05 225.42 387.93 Z" />
<path fill="#e3abd4" stroke="#e3abd4" stroke-width="0.09375" opacity="1.00" d=" M 26.81 389.55 L 28.58 389.12 C 28.59 398.76 28.37 408.41 28.45 418.06 C 28.69 419.52 27.99 422.81 25.91 420.96 C 25.31 417.04 25.55 413.01 25.79 409.06 C 26.97 402.61 25.99 396.03 26.81 389.55 Z" />
<path fill="#daa7c9" stroke="#daa7c9" stroke-width="0.09375" opacity="1.00" d=" M 230.67 397.10 C 230.32 394.53 229.55 391.80 230.87 389.38 C 231.18 390.02 231.79 391.31 232.10 391.95 C 234.04 403.09 235.70 414.28 237.87 425.38 C 239.03 436.42 242.30 447.08 244.49 457.93 C 244.70 459.12 244.46 460.31 244.34 461.50 C 243.85 460.96 242.86 459.89 242.36 459.35 C 242.22 460.26 242.09 461.18 241.96 462.11 C 239.54 457.40 238.93 452.07 237.80 446.96 C 236.60 440.49 234.52 434.18 233.86 427.62 C 234.83 426.57 235.20 425.37 234.95 424.02 C 234.20 418.61 233.28 413.22 232.30 407.86 C 231.69 404.28 231.21 400.68 230.67 397.10 Z" />
<path fill="#b98bad" stroke="#b98bad" stroke-width="0.09375" opacity="1.00" d=" M 73.41 395.97 C 73.28 394.47 73.83 393.09 74.66 391.90 C 74.74 394.26 74.87 396.64 75.06 399.00 C 75.92 408.75 74.33 418.58 75.74 428.29 C 76.43 435.86 75.65 443.46 75.69 451.04 C 75.76 453.54 75.42 456.02 74.79 458.43 C 74.45 446.29 74.42 434.14 74.18 421.99 C 73.37 413.34 73.50 404.64 73.41 395.97 Z" />
<path fill="#9c5b92" stroke="#9c5b92" stroke-width="0.09375" opacity="1.00" d=" M 76.28 394.09 C 78.37 394.57 80.42 395.22 82.47 395.86 C 82.67 402.44 82.77 409.04 82.46 415.62 C 82.83 415.47 83.56 415.17 83.93 415.02 C 84.31 424.88 82.80 434.70 82.48 444.56 C 79.79 437.27 81.58 429.26 80.54 421.69 C 79.91 424.29 79.61 427.00 78.64 429.52 C 78.38 419.32 78.54 409.11 78.21 398.92 C 78.39 397.23 76.85 396.34 75.81 395.36 C 75.93 395.04 76.17 394.41 76.28 394.09 Z" />
<path fill="#cfb1cd" stroke="#cfb1cd" stroke-width="0.09375" opacity="1.00" d=" M 163.46 394.93 L 164.22 396.03 C 164.91 405.34 164.57 414.73 165.64 424.02 C 167.01 430.81 166.48 437.78 166.51 444.66 L 166.14 446.33 C 165.51 440.90 164.45 435.49 164.58 430.00 C 164.60 418.30 162.91 406.64 163.46 394.93 Z" />
<path fill="#dbaccc" stroke="#dbaccc" stroke-width="0.09375" opacity="1.00" d=" M 75.81 395.36 C 76.85 396.34 78.39 397.23 78.21 398.92 C 78.54 409.11 78.38 419.32 78.64 429.52 C 78.19 443.68 78.83 457.86 78.39 472.03 C 77.84 472.32 76.73 472.90 76.18 473.19 C 75.64 468.28 74.79 463.38 74.79 458.43 C 75.42 456.02 75.76 453.54 75.69 451.04 C 75.65 443.46 76.43 435.86 75.74 428.29 C 75.37 417.32 75.70 406.33 75.81 395.36 Z" />
<path fill="#cca0c5" stroke="#cca0c5" stroke-width="0.09375" opacity="1.00" d=" M 166.41 397.92 C 167.04 397.75 168.30 397.40 168.93 397.22 C 169.40 399.89 169.57 402.60 169.49 405.32 C 169.01 416.37 170.44 427.41 170.13 438.45 C 169.07 440.42 168.60 442.59 168.39 444.81 L 168.08 446.06 C 166.14 439.53 168.17 432.60 166.68 425.97 C 166.04 416.65 166.57 407.27 166.41 397.92 Z" />
<path fill="#e3c0dc" stroke="#e3c0dc" stroke-width="0.09375" opacity="1.00" d=" M 32.18 398.48 L 33.05 397.51 C 32.64 404.68 32.63 411.86 32.43 419.04 C 32.46 420.31 31.72 421.39 31.14 422.46 C 31.03 419.77 31.05 417.09 31.03 414.42 C 31.57 409.11 31.93 403.80 32.18 398.48 Z" />
<path fill="#ad6897" stroke="#ad6897" stroke-width="0.09375" opacity="1.00" d=" M 225.37 403.08 C 225.75 401.95 226.16 400.83 226.60 399.72 C 227.25 405.61 227.74 411.70 226.18 417.50 C 225.88 412.69 225.71 407.88 225.37 403.08 Z" />
<path fill="#c071a3" stroke="#c071a3" stroke-width="0.09375" opacity="1.00" d=" M 9.85 460.77 C 12.95 440.81 15.75 420.81 18.49 400.79 C 19.32 405.01 20.36 409.33 19.44 413.63 C 18.90 418.57 16.96 423.81 19.04 428.64 C 17.43 438.19 15.25 447.64 12.98 457.06 C 12.42 459.68 11.41 462.17 10.36 464.62 C 8.98 464.61 7.61 464.58 6.23 464.54 C 6.49 463.81 7.01 462.34 7.27 461.60 C 7.92 461.39 9.21 460.98 9.85 460.77 Z" />
<path fill="#a46296" stroke="#a46296" stroke-width="0.09375" opacity="1.00" d=" M 169.49 405.32 C 170.23 404.64 170.98 403.97 171.73 403.30 C 171.55 409.21 172.56 415.07 172.61 420.98 C 172.58 422.91 173.25 424.75 173.89 426.55 C 174.24 431.45 173.89 436.36 174.25 441.26 C 174.22 441.86 174.14 443.05 174.10 443.65 C 173.65 446.29 173.27 448.94 173.16 451.62 C 171.59 448.44 171.88 444.79 170.49 441.56 C 170.40 440.79 170.22 439.23 170.13 438.45 C 170.44 427.41 169.01 416.37 169.49 405.32 Z" />
<path fill="#b98bad" stroke="#b98bad" stroke-width="0.09375" opacity="1.00" d=" M 9.44 436.71 C 11.06 426.40 11.70 415.95 13.52 405.68 C 13.89 407.50 14.33 409.33 14.57 411.18 C 13.62 421.14 11.21 430.91 10.51 440.91 C 10.15 439.51 9.78 438.10 9.44 436.71 Z" />
<path fill="#b777a1" stroke="#b777a1" stroke-width="0.09375" opacity="1.00" d=" M 78.64 429.52 C 79.61 427.00 79.91 424.29 80.54 421.69 C 81.58 429.26 79.79 437.27 82.48 444.56 C 81.66 455.39 81.20 466.40 78.55 477.00 C 78.10 477.00 77.19 477.00 76.73 477.00 C 76.54 475.73 76.36 474.46 76.18 473.19 C 76.73 472.90 77.84 472.32 78.39 472.03 C 78.83 457.86 78.19 443.68 78.64 429.52 Z" />
<path fill="#b96fa1" stroke="#b96fa1" stroke-width="0.09375" opacity="1.00" d=" M 241.50 422.46 L 242.20 423.52 C 242.86 428.64 243.22 433.79 244.13 438.88 C 244.29 443.42 243.73 448.17 245.58 452.46 C 246.08 454.57 246.58 456.67 247.00 458.80 L 247.00 465.00 C 245.77 464.82 244.54 464.65 243.31 464.51 C 242.85 463.71 242.40 462.91 241.96 462.11 C 242.09 461.18 242.22 460.26 242.36 459.35 C 242.86 459.89 243.85 460.96 244.34 461.50 C 244.46 460.31 244.70 459.12 244.49 457.93 C 242.30 447.08 239.03 436.42 237.87 425.38 C 239.22 426.70 240.38 428.21 240.94 430.04 C 241.09 427.51 241.35 424.98 241.50 422.46 Z" />
<path fill="#deb0cf" stroke="#deb0cf" stroke-width="0.09375" opacity="1.00" d=" M 168.39 444.81 C 168.60 442.59 169.07 440.42 170.13 438.45 C 170.22 439.23 170.40 440.79 170.49 441.56 C 169.90 450.11 171.29 458.62 171.50 467.16 C 172.57 466.45 173.06 465.31 173.05 464.05 C 173.45 459.92 173.43 455.75 173.16 451.62 C 173.27 448.94 173.65 446.29 174.10 443.65 C 174.83 451.80 173.73 459.94 173.49 468.08 C 173.39 471.09 172.93 474.07 172.17 476.99 C 171.63 476.99 170.54 477.00 170.00 477.00 L 169.92 476.55 C 170.49 476.11 171.62 475.23 172.19 474.80 C 172.65 472.46 171.42 470.62 170.12 468.85 C 168.25 460.98 169.09 452.81 168.39 444.81 Z" />
<path fill="#dab2ce" stroke="#dab2ce" stroke-width="0.09375" opacity="1.00" d=" M 244.13 438.88 C 245.28 443.31 246.05 447.87 245.58 452.46 C 243.73 448.17 244.29 443.42 244.13 438.88 Z" />
<path fill="#c284ae" stroke="#c284ae" stroke-width="0.09375" opacity="1.00" d=" M 170.49 441.56 C 171.88 444.79 171.59 448.44 173.16 451.62 C 173.43 455.75 173.45 459.92 173.05 464.05 C 173.06 465.31 172.57 466.45 171.50 467.16 C 171.29 458.62 169.90 450.11 170.49 441.56 Z" />
<path fill="#b98bad" stroke="#b98bad" stroke-width="0.09375" opacity="1.00" d=" M 166.51 444.66 C 166.62 445.98 167.70 449.03 168.08 446.06 L 168.39 444.81 C 169.09 452.81 168.25 460.98 170.12 468.85 C 171.42 470.62 172.65 472.46 172.19 474.80 C 171.62 475.23 170.49 476.11 169.92 476.55 C 167.90 466.59 166.70 456.46 166.14 446.33 L 166.51 444.66 Z" />
</svg>
